solid OpenSCAD_Model
  facet normal 0 0 -1
    outer loop
      vertex 100 3 0
      vertex 98.7634 0.572952 0
      vertex 97 0 0
    endloop
  endfacet
  facet normal 0 0 -1
    outer loop
      vertex 70.7299 98.0533 0
      vertex 67.9209 100 0
      vertex 69.5744 99.5032 0
    endloop
  endfacet
  facet normal 0 -0 -1
    outer loop
      vertex 30.3158 99.427 0
      vertex 32.0791 100 0
      vertex 29.2701 98.0533 0
    endloop
  endfacet
  facet normal 0 0 -1
    outer loop
      vertex 32.0791 100 0
      vertex 49.4487 92.2716 0
      vertex 48.7835 91.9961 0
    endloop
  endfacet
  facet normal -0 0 -1
    outer loop
      vertex 47.7284 70.5513 0
      vertex 47.7283 69.4487 0
      vertex 32.2716 70.5513 0
    endloop
  endfacet
  facet normal -0 0 -1
    outer loop
      vertex 49.4487 72.2716 0
      vertex 48.7835 71.9961 0
      vertex 48.7836 88.0039 0
    endloop
  endfacet
  facet normal 0 0 -1
    outer loop
      vertex 100 3 0
      vertex 91.9961 8.78354 0
      vertex 92.2716 9.44868 0
    endloop
  endfacet
  facet normal 0 0 -1
    outer loop
      vertex 0.572952 1.23665 0
      vertex 0 3 0
      vertex 3 0 0
    endloop
  endfacet
  facet normal 0 0 -1
    outer loop
      vertex 3 0 0
      vertex 8.78355 8.00386 0
      vertex 9.4487 7.72835 0
    endloop
  endfacet
  facet normal -0 0 -1
    outer loop
      vertex 29.4487 7.72835 0
      vertex 3 0 0
      vertex 28.7836 8.00386 0
    endloop
  endfacet
  facet normal -0 -0 -1
    outer loop
      vertex 89.4487 7.72835 0
      vertex 97 0 0
      vertex 88.7836 8.00386 0
    endloop
  endfacet
  facet normal -0 -0 -1
    outer loop
      vertex 68.7836 68.0039 0
      vertex 69.4487 67.7283 0
      vertex 51.2164 68.0039 0
    endloop
  endfacet
  facet normal 0 0 -1
    outer loop
      vertex 50.5513 92.2716 0
      vertex 67.9209 100 0
      vertex 51.2164 91.9961 0
    endloop
  endfacet
  facet normal 0 0 -1
    outer loop
      vertex 29.4487 72.2716 0
      vertex 29.2701 98.0533 0
      vertex 30.5513 72.2716 0
    endloop
  endfacet
  facet normal 0 0 -1
    outer loop
      vertex 32.0791 100 0
      vertex 50.5513 92.2716 0
      vertex 49.4487 92.2716 0
    endloop
  endfacet
  facet normal -0 0 -1
    outer loop
      vertex 47.7284 90.5513 0
      vertex 47.7283 89.4487 0
      vertex 29.2701 98.0533 0
    endloop
  endfacet
  facet normal 0 -0 -1
    outer loop
      vertex 32.0791 100 0
      vertex 47.7284 90.5513 0
      vertex 29.2701 98.0533 0
    endloop
  endfacet
  facet normal 0 0 -1
    outer loop
      vertex 32.0791 100 0
      vertex 48.0039 91.2164 0
      vertex 47.7284 90.5513 0
    endloop
  endfacet
  facet normal 0 0 -1
    outer loop
      vertex 32.0791 100 0
      vertex 48.7835 91.9961 0
      vertex 48.0039 91.2164 0
    endloop
  endfacet
  facet normal 0 0 -1
    outer loop
      vertex 32.0791 100 0
      vertex 67.9209 100 0
      vertex 50.5513 92.2716 0
    endloop
  endfacet
  facet normal 0 0 -1
    outer loop
      vertex 67.9209 100 0
      vertex 51.9961 91.2164 0
      vertex 51.2164 91.9961 0
    endloop
  endfacet
  facet normal 0 0 -1
    outer loop
      vertex 67.9209 100 0
      vertex 52.2716 90.5513 0
      vertex 51.9961 91.2164 0
    endloop
  endfacet
  facet normal 0 -0 -1
    outer loop
      vertex 67.9209 100 0
      vertex 70.7299 98.0533 0
      vertex 52.2716 90.5513 0
    endloop
  endfacet
  facet normal 0 0 -1
    outer loop
      vertex 52.2716 90.5513 0
      vertex 70.7299 98.0533 0
      vertex 52.2716 89.4487 0
    endloop
  endfacet
  facet normal 0 0 -1
    outer loop
      vertex 51.9961 71.2164 0
      vertex 51.9961 88.7835 0
      vertex 68.7835 71.9961 0
    endloop
  endfacet
  facet normal 0 0 -1
    outer loop
      vertex 70.7299 98.0533 0
      vertex 72.2716 70.5513 0
      vertex 71.9961 71.2164 0
    endloop
  endfacet
  facet normal 0 0 -1
    outer loop
      vertex 48.7835 71.9961 0
      vertex 31.2164 71.9961 0
      vertex 48.0039 88.7836 0
    endloop
  endfacet
  facet normal 0 0 -1
    outer loop
      vertex 68.0039 71.2164 0
      vertex 51.9961 71.2164 0
      vertex 68.7835 71.9961 0
    endloop
  endfacet
  facet normal 0 0 -1
    outer loop
      vertex 48.7835 71.9961 0
      vertex 48.0039 88.7836 0
      vertex 48.7836 88.0039 0
    endloop
  endfacet
  facet normal 0 -0 -1
    outer loop
      vertex 51.2164 68.0039 0
      vertex 69.4487 67.7283 0
      vertex 50.5513 67.7284 0
    endloop
  endfacet
  facet normal 0 -0 -1
    outer loop
      vertex 52.2716 89.4487 0
      vertex 68.7835 71.9961 0
      vertex 51.9961 88.7835 0
    endloop
  endfacet
  facet normal 0 -0 -1
    outer loop
      vertex 52.2716 69.4487 0
      vertex 68.0039 68.7836 0
      vertex 51.9961 68.7835 0
    endloop
  endfacet
  facet normal 0 -0 -1
    outer loop
      vertex 51.2164 88.0039 0
      vertex 51.2164 71.9961 0
      vertex 50.5513 72.2716 0
    endloop
  endfacet
  facet normal 0 0 -1
    outer loop
      vertex 51.2164 71.9961 0
      vertex 51.9961 88.7835 0
      vertex 51.9961 71.2164 0
    endloop
  endfacet
  facet normal 0 0 -1
    outer loop
      vertex 51.2164 88.0039 0
      vertex 51.9961 88.7835 0
      vertex 51.2164 71.9961 0
    endloop
  endfacet
  facet normal 0 0 -1
    outer loop
      vertex 52.2716 89.4487 0
      vertex 69.4487 72.2716 0
      vertex 68.7835 71.9961 0
    endloop
  endfacet
  facet normal 0 0 -1
    outer loop
      vertex 52.2716 89.4487 0
      vertex 70.7299 98.0533 0
      vertex 69.4487 72.2716 0
    endloop
  endfacet
  facet normal 0 0 -1
    outer loop
      vertex 70.7299 98.0533 0
      vertex 99.809 20.4993 0
      vertex 72.2716 70.5513 0
    endloop
  endfacet
  facet normal 0 0 -1
    outer loop
      vertex 70.7299 98.0533 0
      vertex 70.5513 72.2716 0
      vertex 69.4487 72.2716 0
    endloop
  endfacet
  facet normal 0 -0 -1
    outer loop
      vertex 70.7299 98.0533 0
      vertex 71.2164 71.9961 0
      vertex 70.5513 72.2716 0
    endloop
  endfacet
  facet normal 0 0 -1
    outer loop
      vertex 70.7299 98.0533 0
      vertex 71.9961 71.2164 0
      vertex 71.2164 71.9961 0
    endloop
  endfacet
  facet normal 0 0 -1
    outer loop
      vertex 72.2716 70.5513 0
      vertex 99.809 20.4993 0
      vertex 72.2716 69.4487 0
    endloop
  endfacet
  facet normal 0 -0 -1
    outer loop
      vertex 72.2716 69.4487 0
      vertex 99.809 20.4993 0
      vertex 71.9961 68.7835 0
    endloop
  endfacet
  facet normal 0 -0 -1
    outer loop
      vertex 71.9961 68.7835 0
      vertex 99.809 20.4993 0
      vertex 71.2164 68.0039 0
    endloop
  endfacet
  facet normal 0 -0 -1
    outer loop
      vertex 71.2164 68.0039 0
      vertex 99.809 20.4993 0
      vertex 70.5513 67.7284 0
    endloop
  endfacet
  facet normal -0 0 -1
    outer loop
      vertex 29.4487 12.2716 0
      vertex 28.7835 11.9961 0
      vertex 10.5513 12.2716 0
    endloop
  endfacet
  facet normal 0 0 -1
    outer loop
      vertex 71.9961 11.2164 0
      vertex 88.7835 11.9961 0
      vertex 88.0039 11.2164 0
    endloop
  endfacet
  facet normal -0 0 -1
    outer loop
      vertex 67.7284 70.5513 0
      vertex 67.7283 69.4487 0
      vertex 52.2716 70.5513 0
    endloop
  endfacet
  facet normal 0 0 -1
    outer loop
      vertex 31.2164 68.0039 0
      vertex 48.7836 68.0039 0
      vertex 49.4487 67.7283 0
    endloop
  endfacet
  facet normal 0 0 -1
    outer loop
      vertex 52.2716 70.5513 0
      vertex 51.9961 71.2164 0
      vertex 68.0039 71.2164 0
    endloop
  endfacet
  facet normal 0 -0 -1
    outer loop
      vertex 32.2716 69.4487 0
      vertex 48.0039 68.7836 0
      vertex 31.9961 68.7835 0
    endloop
  endfacet
  facet normal 0 0 -1
    outer loop
      vertex 49.4487 67.7283 0
      vertex 30.5513 67.7284 0
      vertex 31.2164 68.0039 0
    endloop
  endfacet
  facet normal 0 0 -1
    outer loop
      vertex 31.2164 71.9961 0
      vertex 48.7835 71.9961 0
      vertex 31.9961 71.2164 0
    endloop
  endfacet
  facet normal 0 0 -1
    outer loop
      vertex 48.7836 88.0039 0
      vertex 49.4487 87.7283 0
      vertex 49.4487 72.2716 0
    endloop
  endfacet
  facet normal 0 0 -1
    outer loop
      vertex 49.4487 72.2716 0
      vertex 49.4487 87.7283 0
      vertex 50.5513 72.2716 0
    endloop
  endfacet
  facet normal 0 0 -1
    outer loop
      vertex 50.5513 72.2716 0
      vertex 49.4487 87.7283 0
      vertex 50.5513 87.7284 0
    endloop
  endfacet
  facet normal 0 0 -1
    outer loop
      vertex 51.2164 88.0039 0
      vertex 50.5513 72.2716 0
      vertex 50.5513 87.7284 0
    endloop
  endfacet
  facet normal 0 0 -1
    outer loop
      vertex 67.7284 70.5513 0
      vertex 52.2716 70.5513 0
      vertex 68.0039 71.2164 0
    endloop
  endfacet
  facet normal 0 0 -1
    outer loop
      vertex 67.7283 69.4487 0
      vertex 52.2716 69.4487 0
      vertex 52.2716 70.5513 0
    endloop
  endfacet
  facet normal -0 -0 -1
    outer loop
      vertex 67.7283 69.4487 0
      vertex 68.0039 68.7836 0
      vertex 52.2716 69.4487 0
    endloop
  endfacet
  facet normal 0 -0 -1
    outer loop
      vertex 68.0039 68.7836 0
      vertex 68.7836 68.0039 0
      vertex 51.9961 68.7835 0
    endloop
  endfacet
  facet normal 0 -0 -1
    outer loop
      vertex 51.9961 68.7835 0
      vertex 68.7836 68.0039 0
      vertex 51.2164 68.0039 0
    endloop
  endfacet
  facet normal 0 0 -1
    outer loop
      vertex 31.2164 8.00386 0
      vertex 68.7836 8.00386 0
      vertex 69.4487 7.72835 0
    endloop
  endfacet
  facet normal 0 0 -1
    outer loop
      vertex 48.7835 71.9961 0
      vertex 48.0039 71.2164 0
      vertex 31.9961 71.2164 0
    endloop
  endfacet
  facet normal -0 0 -1
    outer loop
      vertex 29.4487 67.7283 0
      vertex 0.190964 20.4993 0
      vertex 28.7836 68.0039 0
    endloop
  endfacet
  facet normal -0 0 -1
    outer loop
      vertex 28.7836 68.0039 0
      vertex 0.190964 20.4993 0
      vertex 28.0039 68.7836 0
    endloop
  endfacet
  facet normal -0 0 -1
    outer loop
      vertex 28.0039 68.7836 0
      vertex 0.190964 20.4993 0
      vertex 27.7283 69.4487 0
    endloop
  endfacet
  facet normal -0 0 -1
    outer loop
      vertex 27.7283 69.4487 0
      vertex 0.190964 20.4993 0
      vertex 27.7284 70.5513 0
    endloop
  endfacet
  facet normal -0 0 -1
    outer loop
      vertex 27.7284 70.5513 0
      vertex 0.190964 20.4993 0
      vertex 29.2701 98.0533 0
    endloop
  endfacet
  facet normal -0 0 -1
    outer loop
      vertex 28.0039 71.2164 0
      vertex 27.7284 70.5513 0
      vertex 29.2701 98.0533 0
    endloop
  endfacet
  facet normal -0 0 -1
    outer loop
      vertex 29.4487 72.2716 0
      vertex 28.7835 71.9961 0
      vertex 29.2701 98.0533 0
    endloop
  endfacet
  facet normal -0 0 -1
    outer loop
      vertex 28.7835 71.9961 0
      vertex 28.0039 71.2164 0
      vertex 29.2701 98.0533 0
    endloop
  endfacet
  facet normal 0 0 -1
    outer loop
      vertex 29.2701 98.0533 0
      vertex 47.7283 89.4487 0
      vertex 30.5513 72.2716 0
    endloop
  endfacet
  facet normal 0 0 -1
    outer loop
      vertex 31.2164 71.9961 0
      vertex 30.5513 72.2716 0
      vertex 48.0039 88.7836 0
    endloop
  endfacet
  facet normal 0 0 -1
    outer loop
      vertex 30.5513 72.2716 0
      vertex 47.7283 89.4487 0
      vertex 48.0039 88.7836 0
    endloop
  endfacet
  facet normal -0 0 -1
    outer loop
      vertex 48.0039 71.2164 0
      vertex 32.2716 70.5513 0
      vertex 31.9961 71.2164 0
    endloop
  endfacet
  facet normal 0 0 -1
    outer loop
      vertex 48.0039 71.2164 0
      vertex 47.7284 70.5513 0
      vertex 32.2716 70.5513 0
    endloop
  endfacet
  facet normal 0 0 -1
    outer loop
      vertex 32.2716 70.5513 0
      vertex 47.7283 69.4487 0
      vertex 32.2716 69.4487 0
    endloop
  endfacet
  facet normal 0 0 -1
    outer loop
      vertex 32.2716 69.4487 0
      vertex 47.7283 69.4487 0
      vertex 48.0039 68.7836 0
    endloop
  endfacet
  facet normal 0 0 -1
    outer loop
      vertex 31.9961 68.7835 0
      vertex 48.0039 68.7836 0
      vertex 48.7836 68.0039 0
    endloop
  endfacet
  facet normal 0 0 -1
    outer loop
      vertex 31.2164 68.0039 0
      vertex 31.9961 68.7835 0
      vertex 48.7836 68.0039 0
    endloop
  endfacet
  facet normal 0 0 -1
    outer loop
      vertex 97 0 0
      vertex 69.4487 7.72835 0
      vertex 70.5513 7.72836 0
    endloop
  endfacet
  facet normal 0 0 -1
    outer loop
      vertex 71.2164 8.00386 0
      vertex 71.9961 8.78354 0
      vertex 88.7836 8.00386 0
    endloop
  endfacet
  facet normal -0 0 -1
    outer loop
      vertex 88.0039 8.78355 0
      vertex 71.9961 8.78354 0
      vertex 72.2716 9.44868 0
    endloop
  endfacet
  facet normal 0 -0 -1
    outer loop
      vertex 100 19.446 0
      vertex 100 3 0
      vertex 92.2716 10.5513 0
    endloop
  endfacet
  facet normal 0 0 -1
    outer loop
      vertex 87.7283 9.4487 0
      vertex 72.2716 10.5513 0
      vertex 87.7284 10.5513 0
    endloop
  endfacet
  facet normal 0 0 -1
    outer loop
      vertex 70.5513 12.2716 0
      vertex 88.7835 11.9961 0
      vertex 71.2164 11.9961 0
    endloop
  endfacet
  facet normal 0 0 -1
    outer loop
      vertex 31.2164 11.9961 0
      vertex 49.4487 67.7283 0
      vertex 68.7835 11.9961 0
    endloop
  endfacet
  facet normal -0 0 -1
    outer loop
      vertex 69.4487 12.2716 0
      vertex 68.7835 11.9961 0
      vertex 50.5513 67.7284 0
    endloop
  endfacet
  facet normal 0 -0 -1
    outer loop
      vertex 50.5513 67.7284 0
      vertex 68.7835 11.9961 0
      vertex 49.4487 67.7283 0
    endloop
  endfacet
  facet normal 0 0 -1
    outer loop
      vertex 89.4487 12.2716 0
      vertex 99.809 20.4993 0
      vertex 90.5513 12.2716 0
    endloop
  endfacet
  facet normal 0 0 -1
    outer loop
      vertex 90.5513 12.2716 0
      vertex 99.809 20.4993 0
      vertex 100 19.446 0
    endloop
  endfacet
  facet normal 0 0 -1
    outer loop
      vertex 91.2164 11.9961 0
      vertex 90.5513 12.2716 0
      vertex 100 19.446 0
    endloop
  endfacet
  facet normal 0 0 -1
    outer loop
      vertex 92.2716 10.5513 0
      vertex 91.9961 11.2164 0
      vertex 100 19.446 0
    endloop
  endfacet
  facet normal 0 0 -1
    outer loop
      vertex 91.9961 11.2164 0
      vertex 91.2164 11.9961 0
      vertex 100 19.446 0
    endloop
  endfacet
  facet normal 0 0 -1
    outer loop
      vertex 92.2716 10.5513 0
      vertex 100 3 0
      vertex 92.2716 9.44868 0
    endloop
  endfacet
  facet normal -0 0 -1
    outer loop
      vertex 100 3 0
      vertex 97 0 0
      vertex 91.9961 8.78354 0
    endloop
  endfacet
  facet normal 0 -0 -1
    outer loop
      vertex 91.9961 8.78354 0
      vertex 97 0 0
      vertex 91.2164 8.00386 0
    endloop
  endfacet
  facet normal 0 -0 -1
    outer loop
      vertex 91.2164 8.00386 0
      vertex 97 0 0
      vertex 90.5513 7.72836 0
    endloop
  endfacet
  facet normal 0 -0 -1
    outer loop
      vertex 90.5513 7.72836 0
      vertex 97 0 0
      vertex 89.4487 7.72835 0
    endloop
  endfacet
  facet normal 0 0 -1
    outer loop
      vertex 71.2164 11.9961 0
      vertex 88.7835 11.9961 0
      vertex 71.9961 11.2164 0
    endloop
  endfacet
  facet normal 0 -0 -1
    outer loop
      vertex 69.4487 7.72835 0
      vertex 97 0 0
      vertex 3 0 0
    endloop
  endfacet
  facet normal 0 0 -1
    outer loop
      vertex 31.9961 8.78354 0
      vertex 32.2716 9.44868 0
      vertex 68.0039 8.78355 0
    endloop
  endfacet
  facet normal 0 0 -1
    outer loop
      vertex 68.7835 11.9961 0
      vertex 68.0039 11.2164 0
      vertex 31.9961 11.2164 0
    endloop
  endfacet
  facet normal 0 0 -1
    outer loop
      vertex 32.2716 10.5513 0
      vertex 67.7284 10.5513 0
      vertex 67.7283 9.4487 0
    endloop
  endfacet
  facet normal -0 0 -1
    outer loop
      vertex 69.4487 7.72835 0
      vertex 3 0 0
      vertex 30.5513 7.72836 0
    endloop
  endfacet
  facet normal 0 0 -1
    outer loop
      vertex 29.4487 12.2716 0
      vertex 10.5513 12.2716 0
      vertex 0.190964 20.4993 0
    endloop
  endfacet
  facet normal 0 0 -1
    outer loop
      vertex 70.5513 12.2716 0
      vertex 89.4487 12.2716 0
      vertex 88.7835 11.9961 0
    endloop
  endfacet
  facet normal 0 0 -1
    outer loop
      vertex 50.5513 67.7284 0
      vertex 69.4487 67.7283 0
      vertex 69.4487 12.2716 0
    endloop
  endfacet
  facet normal 0 0 -1
    outer loop
      vertex 70.5513 12.2716 0
      vertex 69.4487 67.7283 0
      vertex 70.5513 67.7284 0
    endloop
  endfacet
  facet normal 0 0 -1
    outer loop
      vertex 69.4487 12.2716 0
      vertex 69.4487 67.7283 0
      vertex 70.5513 12.2716 0
    endloop
  endfacet
  facet normal 0 0 -1
    outer loop
      vertex 89.4487 12.2716 0
      vertex 70.5513 12.2716 0
      vertex 99.809 20.4993 0
    endloop
  endfacet
  facet normal 0 0 -1
    outer loop
      vertex 70.5513 12.2716 0
      vertex 70.5513 67.7284 0
      vertex 99.809 20.4993 0
    endloop
  endfacet
  facet normal 0 0 -1
    outer loop
      vertex 71.9961 11.2164 0
      vertex 88.0039 11.2164 0
      vertex 72.2716 10.5513 0
    endloop
  endfacet
  facet normal 0 0 -1
    outer loop
      vertex 72.2716 10.5513 0
      vertex 88.0039 11.2164 0
      vertex 87.7284 10.5513 0
    endloop
  endfacet
  facet normal 0 0 -1
    outer loop
      vertex 72.2716 9.44868 0
      vertex 72.2716 10.5513 0
      vertex 87.7283 9.4487 0
    endloop
  endfacet
  facet normal 0 0 -1
    outer loop
      vertex 88.0039 8.78355 0
      vertex 72.2716 9.44868 0
      vertex 87.7283 9.4487 0
    endloop
  endfacet
  facet normal 0 0 -1
    outer loop
      vertex 88.7836 8.00386 0
      vertex 71.9961 8.78354 0
      vertex 88.0039 8.78355 0
    endloop
  endfacet
  facet normal 0 0 -1
    outer loop
      vertex 97 0 0
      vertex 71.2164 8.00386 0
      vertex 88.7836 8.00386 0
    endloop
  endfacet
  facet normal 0 0 -1
    outer loop
      vertex 97 0 0
      vertex 70.5513 7.72836 0
      vertex 71.2164 8.00386 0
    endloop
  endfacet
  facet normal 0 0 -1
    outer loop
      vertex 31.2164 11.9961 0
      vertex 68.7835 11.9961 0
      vertex 31.9961 11.2164 0
    endloop
  endfacet
  facet normal 0 -0 -1
    outer loop
      vertex 12.2716 9.44868 0
      vertex 28.0039 8.78355 0
      vertex 11.9961 8.78354 0
    endloop
  endfacet
  facet normal -0 0 -1
    outer loop
      vertex 27.7284 10.5513 0
      vertex 27.7283 9.4487 0
      vertex 12.2716 10.5513 0
    endloop
  endfacet
  facet normal 0 0 -1
    outer loop
      vertex 28.0039 11.2164 0
      vertex 11.9961 11.2164 0
      vertex 28.7835 11.9961 0
    endloop
  endfacet
  facet normal 0 0 -1
    outer loop
      vertex 0 3 0
      vertex 7.72835 9.4487 0
      vertex 8.00386 8.78355 0
    endloop
  endfacet
  facet normal 0 0 -1
    outer loop
      vertex 0 3 0
      vertex 7.72836 10.5513 0
      vertex 7.72835 9.4487 0
    endloop
  endfacet
  facet normal 0 0 -1
    outer loop
      vertex 0 19.446 0
      vertex 7.72836 10.5513 0
      vertex 0 3 0
    endloop
  endfacet
  facet normal 0 -0 -1
    outer loop
      vertex 29.4487 67.7283 0
      vertex 29.4487 12.2716 0
      vertex 0.190964 20.4993 0
    endloop
  endfacet
  facet normal 0 0 -1
    outer loop
      vertex 29.4487 67.7283 0
      vertex 30.5513 12.2716 0
      vertex 29.4487 12.2716 0
    endloop
  endfacet
  facet normal 0 0 -1
    outer loop
      vertex 29.4487 67.7283 0
      vertex 30.5513 67.7284 0
      vertex 30.5513 12.2716 0
    endloop
  endfacet
  facet normal 0 0 -1
    outer loop
      vertex 31.2164 11.9961 0
      vertex 30.5513 12.2716 0
      vertex 49.4487 67.7283 0
    endloop
  endfacet
  facet normal 0 0 -1
    outer loop
      vertex 30.5513 12.2716 0
      vertex 30.5513 67.7284 0
      vertex 49.4487 67.7283 0
    endloop
  endfacet
  facet normal -0 0 -1
    outer loop
      vertex 68.0039 11.2164 0
      vertex 32.2716 10.5513 0
      vertex 31.9961 11.2164 0
    endloop
  endfacet
  facet normal 0 0 -1
    outer loop
      vertex 68.0039 11.2164 0
      vertex 67.7284 10.5513 0
      vertex 32.2716 10.5513 0
    endloop
  endfacet
  facet normal 0 0 -1
    outer loop
      vertex 32.2716 10.5513 0
      vertex 67.7283 9.4487 0
      vertex 32.2716 9.44868 0
    endloop
  endfacet
  facet normal 0 0 -1
    outer loop
      vertex 32.2716 9.44868 0
      vertex 67.7283 9.4487 0
      vertex 68.0039 8.78355 0
    endloop
  endfacet
  facet normal 0 0 -1
    outer loop
      vertex 31.9961 8.78354 0
      vertex 68.0039 8.78355 0
      vertex 68.7836 8.00386 0
    endloop
  endfacet
  facet normal 0 -0 -1
    outer loop
      vertex 29.4487 7.72835 0
      vertex 30.5513 7.72836 0
      vertex 3 0 0
    endloop
  endfacet
  facet normal 0 0 -1
    outer loop
      vertex 31.2164 8.00386 0
      vertex 31.9961 8.78354 0
      vertex 68.7836 8.00386 0
    endloop
  endfacet
  facet normal 0 0 -1
    outer loop
      vertex 69.4487 7.72835 0
      vertex 30.5513 7.72836 0
      vertex 31.2164 8.00386 0
    endloop
  endfacet
  facet normal -0 0 -1
    outer loop
      vertex 28.7835 11.9961 0
      vertex 11.9961 11.2164 0
      vertex 11.2164 11.9961 0
    endloop
  endfacet
  facet normal 0 -0 -1
    outer loop
      vertex 8.00386 8.78355 0
      vertex 8.78355 8.00386 0
      vertex 3 0 0
    endloop
  endfacet
  facet normal 0 0 -1
    outer loop
      vertex 12.2716 10.5513 0
      vertex 11.9961 11.2164 0
      vertex 28.0039 11.2164 0
    endloop
  endfacet
  facet normal 0 0 -1
    outer loop
      vertex 0 3 0
      vertex 8.00386 8.78355 0
      vertex 3 0 0
    endloop
  endfacet
  facet normal 0 0 -1
    outer loop
      vertex 10.5513 12.2716 0
      vertex 28.7835 11.9961 0
      vertex 11.2164 11.9961 0
    endloop
  endfacet
  facet normal -0 0 -1
    outer loop
      vertex 8.00386 11.2164 0
      vertex 7.72836 10.5513 0
      vertex 0 19.446 0
    endloop
  endfacet
  facet normal -0 0 -1
    outer loop
      vertex 8.78354 11.9961 0
      vertex 8.00386 11.2164 0
      vertex 0 19.446 0
    endloop
  endfacet
  facet normal -0 0 -1
    outer loop
      vertex 9.44868 12.2716 0
      vertex 8.78354 11.9961 0
      vertex 0 19.446 0
    endloop
  endfacet
  facet normal 0 -0 -1
    outer loop
      vertex 0.190964 20.4993 0
      vertex 9.44868 12.2716 0
      vertex 0 19.446 0
    endloop
  endfacet
  facet normal 0 0 -1
    outer loop
      vertex 0.190964 20.4993 0
      vertex 10.5513 12.2716 0
      vertex 9.44868 12.2716 0
    endloop
  endfacet
  facet normal 0 0 -1
    outer loop
      vertex 27.7284 10.5513 0
      vertex 12.2716 10.5513 0
      vertex 28.0039 11.2164 0
    endloop
  endfacet
  facet normal -0 0 -1
    outer loop
      vertex 27.7283 9.4487 0
      vertex 12.2716 9.44868 0
      vertex 12.2716 10.5513 0
    endloop
  endfacet
  facet normal 0 -0 -1
    outer loop
      vertex 27.7283 9.4487 0
      vertex 28.0039 8.78355 0
      vertex 12.2716 9.44868 0
    endloop
  endfacet
  facet normal 0 -0 -1
    outer loop
      vertex 28.0039 8.78355 0
      vertex 28.7836 8.00386 0
      vertex 11.9961 8.78354 0
    endloop
  endfacet
  facet normal 0 0 -1
    outer loop
      vertex 11.2164 8.00386 0
      vertex 3 0 0
      vertex 10.5513 7.72836 0
    endloop
  endfacet
  facet normal 0 0 -1
    outer loop
      vertex 3 0 0
      vertex 11.2164 8.00386 0
      vertex 28.7836 8.00386 0
    endloop
  endfacet
  facet normal 0 0 -1
    outer loop
      vertex 11.2164 8.00386 0
      vertex 11.9961 8.78354 0
      vertex 28.7836 8.00386 0
    endloop
  endfacet
  facet normal 0 0 -1
    outer loop
      vertex 10.5513 7.72836 0
      vertex 3 0 0
      vertex 9.4487 7.72835 0
    endloop
  endfacet
  facet normal 0 0 1
    outer loop
      vertex 97 0 5
      vertex 98.7634 0.572952 5
      vertex 100 3 5
    endloop
  endfacet
  facet normal 0 0 1
    outer loop
      vertex 69.5744 99.5032 5
      vertex 67.9209 100 5
      vertex 70.7299 98.0533 5
    endloop
  endfacet
  facet normal 0 0 1
    outer loop
      vertex 29.2701 98.0533 5
      vertex 32.0791 100 5
      vertex 30.3158 99.427 5
    endloop
  endfacet
  facet normal 0 -0 1
    outer loop
      vertex 48.7835 91.9961 5
      vertex 49.4487 92.2716 5
      vertex 32.0791 100 5
    endloop
  endfacet
  facet normal -0 0 1
    outer loop
      vertex 32.2716 70.5513 5
      vertex 47.7283 69.4487 5
      vertex 47.7284 70.5513 5
    endloop
  endfacet
  facet normal 0 0 1
    outer loop
      vertex 48.7836 88.0039 5
      vertex 48.7835 71.9961 5
      vertex 49.4487 72.2716 5
    endloop
  endfacet
  facet normal 0 0 1
    outer loop
      vertex 92.2716 9.44868 5
      vertex 91.9961 8.78354 5
      vertex 100 3 5
    endloop
  endfacet
  facet normal 0 0 1
    outer loop
      vertex 3 0 5
      vertex 0 3 5
      vertex 0.572952 1.23665 5
    endloop
  endfacet
  facet normal 0 0 1
    outer loop
      vertex 9.4487 7.72835 5
      vertex 8.78355 8.00386 5
      vertex 3 0 5
    endloop
  endfacet
  facet normal 0 0 1
    outer loop
      vertex 28.7836 8.00386 5
      vertex 3 0 5
      vertex 29.4487 7.72835 5
    endloop
  endfacet
  facet normal 0 0 1
    outer loop
      vertex 88.7836 8.00386 5
      vertex 97 0 5
      vertex 89.4487 7.72835 5
    endloop
  endfacet
  facet normal -0 0 1
    outer loop
      vertex 51.2164 68.0039 5
      vertex 69.4487 67.7283 5
      vertex 68.7836 68.0039 5
    endloop
  endfacet
  facet normal 0 -0 1
    outer loop
      vertex 51.2164 91.9961 5
      vertex 67.9209 100 5
      vertex 50.5513 92.2716 5
    endloop
  endfacet
  facet normal 0 0 1
    outer loop
      vertex 30.5513 72.2716 5
      vertex 29.2701 98.0533 5
      vertex 29.4487 72.2716 5
    endloop
  endfacet
  facet normal 0 -0 1
    outer loop
      vertex 49.4487 92.2716 5
      vertex 50.5513 92.2716 5
      vertex 32.0791 100 5
    endloop
  endfacet
  facet normal 0 0 1
    outer loop
      vertex 29.2701 98.0533 5
      vertex 47.7283 89.4487 5
      vertex 47.7284 90.5513 5
    endloop
  endfacet
  facet normal -0 0 1
    outer loop
      vertex 29.2701 98.0533 5
      vertex 47.7284 90.5513 5
      vertex 32.0791 100 5
    endloop
  endfacet
  facet normal 0 -0 1
    outer loop
      vertex 47.7284 90.5513 5
      vertex 48.0039 91.2164 5
      vertex 32.0791 100 5
    endloop
  endfacet
  facet normal 0 -0 1
    outer loop
      vertex 48.0039 91.2164 5
      vertex 48.7835 91.9961 5
      vertex 32.0791 100 5
    endloop
  endfacet
  facet normal 0 -0 1
    outer loop
      vertex 50.5513 92.2716 5
      vertex 67.9209 100 5
      vertex 32.0791 100 5
    endloop
  endfacet
  facet normal -0 0 1
    outer loop
      vertex 51.2164 91.9961 5
      vertex 51.9961 91.2164 5
      vertex 67.9209 100 5
    endloop
  endfacet
  facet normal -0 0 1
    outer loop
      vertex 51.9961 91.2164 5
      vertex 52.2716 90.5513 5
      vertex 67.9209 100 5
    endloop
  endfacet
  facet normal 0 0 1
    outer loop
      vertex 52.2716 90.5513 5
      vertex 70.7299 98.0533 5
      vertex 67.9209 100 5
    endloop
  endfacet
  facet normal 0 0 1
    outer loop
      vertex 52.2716 89.4487 5
      vertex 70.7299 98.0533 5
      vertex 52.2716 90.5513 5
    endloop
  endfacet
  facet normal 0 0 1
    outer loop
      vertex 68.7835 71.9961 5
      vertex 51.9961 88.7835 5
      vertex 51.9961 71.2164 5
    endloop
  endfacet
  facet normal -0 -0 1
    outer loop
      vertex 71.9961 71.2164 5
      vertex 72.2716 70.5513 5
      vertex 70.7299 98.0533 5
    endloop
  endfacet
  facet normal 0 0 1
    outer loop
      vertex 48.0039 88.7836 5
      vertex 31.2164 71.9961 5
      vertex 48.7835 71.9961 5
    endloop
  endfacet
  facet normal 0 0 1
    outer loop
      vertex 68.7835 71.9961 5
      vertex 51.9961 71.2164 5
      vertex 68.0039 71.2164 5
    endloop
  endfacet
  facet normal 0 0 1
    outer loop
      vertex 48.7836 88.0039 5
      vertex 48.0039 88.7836 5
      vertex 48.7835 71.9961 5
    endloop
  endfacet
  facet normal -0 0 1
    outer loop
      vertex 50.5513 67.7284 5
      vertex 69.4487 67.7283 5
      vertex 51.2164 68.0039 5
    endloop
  endfacet
  facet normal -0 0 1
    outer loop
      vertex 51.9961 88.7835 5
      vertex 68.7835 71.9961 5
      vertex 52.2716 89.4487 5
    endloop
  endfacet
  facet normal 0 0 1
    outer loop
      vertex 51.9961 68.7835 5
      vertex 68.0039 68.7836 5
      vertex 52.2716 69.4487 5
    endloop
  endfacet
  facet normal -0 0 1
    outer loop
      vertex 50.5513 72.2716 5
      vertex 51.2164 71.9961 5
      vertex 51.2164 88.0039 5
    endloop
  endfacet
  facet normal 0 -0 1
    outer loop
      vertex 51.9961 71.2164 5
      vertex 51.9961 88.7835 5
      vertex 51.2164 71.9961 5
    endloop
  endfacet
  facet normal 0 0 1
    outer loop
      vertex 51.2164 71.9961 5
      vertex 51.9961 88.7835 5
      vertex 51.2164 88.0039 5
    endloop
  endfacet
  facet normal 0 -0 1
    outer loop
      vertex 68.7835 71.9961 5
      vertex 69.4487 72.2716 5
      vertex 52.2716 89.4487 5
    endloop
  endfacet
  facet normal 0 -0 1
    outer loop
      vertex 69.4487 72.2716 5
      vertex 70.7299 98.0533 5
      vertex 52.2716 89.4487 5
    endloop
  endfacet
  facet normal -0 -0 1
    outer loop
      vertex 72.2716 70.5513 5
      vertex 99.809 20.4993 5
      vertex 70.7299 98.0533 5
    endloop
  endfacet
  facet normal 0 0 1
    outer loop
      vertex 69.4487 72.2716 5
      vertex 70.5513 72.2716 5
      vertex 70.7299 98.0533 5
    endloop
  endfacet
  facet normal -0 0 1
    outer loop
      vertex 70.5513 72.2716 5
      vertex 71.2164 71.9961 5
      vertex 70.7299 98.0533 5
    endloop
  endfacet
  facet normal -0 -0 1
    outer loop
      vertex 71.2164 71.9961 5
      vertex 71.9961 71.2164 5
      vertex 70.7299 98.0533 5
    endloop
  endfacet
  facet normal -0 0 1
    outer loop
      vertex 72.2716 69.4487 5
      vertex 99.809 20.4993 5
      vertex 72.2716 70.5513 5
    endloop
  endfacet
  facet normal -0 0 1
    outer loop
      vertex 71.9961 68.7835 5
      vertex 99.809 20.4993 5
      vertex 72.2716 69.4487 5
    endloop
  endfacet
  facet normal -0 0 1
    outer loop
      vertex 71.2164 68.0039 5
      vertex 99.809 20.4993 5
      vertex 71.9961 68.7835 5
    endloop
  endfacet
  facet normal -0 0 1
    outer loop
      vertex 70.5513 67.7284 5
      vertex 99.809 20.4993 5
      vertex 71.2164 68.0039 5
    endloop
  endfacet
  facet normal -0 0 1
    outer loop
      vertex 10.5513 12.2716 5
      vertex 28.7835 11.9961 5
      vertex 29.4487 12.2716 5
    endloop
  endfacet
  facet normal 0 -0 1
    outer loop
      vertex 88.0039 11.2164 5
      vertex 88.7835 11.9961 5
      vertex 71.9961 11.2164 5
    endloop
  endfacet
  facet normal -0 0 1
    outer loop
      vertex 52.2716 70.5513 5
      vertex 67.7283 69.4487 5
      vertex 67.7284 70.5513 5
    endloop
  endfacet
  facet normal 0 0 1
    outer loop
      vertex 49.4487 67.7283 5
      vertex 48.7836 68.0039 5
      vertex 31.2164 68.0039 5
    endloop
  endfacet
  facet normal 0 0 1
    outer loop
      vertex 68.0039 71.2164 5
      vertex 51.9961 71.2164 5
      vertex 52.2716 70.5513 5
    endloop
  endfacet
  facet normal 0 0 1
    outer loop
      vertex 31.9961 68.7835 5
      vertex 48.0039 68.7836 5
      vertex 32.2716 69.4487 5
    endloop
  endfacet
  facet normal 0 0 1
    outer loop
      vertex 31.2164 68.0039 5
      vertex 30.5513 67.7284 5
      vertex 49.4487 67.7283 5
    endloop
  endfacet
  facet normal 0 -0 1
    outer loop
      vertex 31.9961 71.2164 5
      vertex 48.7835 71.9961 5
      vertex 31.2164 71.9961 5
    endloop
  endfacet
  facet normal 0 -0 1
    outer loop
      vertex 49.4487 72.2716 5
      vertex 49.4487 87.7283 5
      vertex 48.7836 88.0039 5
    endloop
  endfacet
  facet normal 0 0 1
    outer loop
      vertex 50.5513 72.2716 5
      vertex 49.4487 87.7283 5
      vertex 49.4487 72.2716 5
    endloop
  endfacet
  facet normal 0 0 1
    outer loop
      vertex 50.5513 87.7284 5
      vertex 49.4487 87.7283 5
      vertex 50.5513 72.2716 5
    endloop
  endfacet
  facet normal -0 0 1
    outer loop
      vertex 50.5513 87.7284 5
      vertex 50.5513 72.2716 5
      vertex 51.2164 88.0039 5
    endloop
  endfacet
  facet normal 0 0 1
    outer loop
      vertex 68.0039 71.2164 5
      vertex 52.2716 70.5513 5
      vertex 67.7284 70.5513 5
    endloop
  endfacet
  facet normal 0 0 1
    outer loop
      vertex 52.2716 70.5513 5
      vertex 52.2716 69.4487 5
      vertex 67.7283 69.4487 5
    endloop
  endfacet
  facet normal -0 0 1
    outer loop
      vertex 52.2716 69.4487 5
      vertex 68.0039 68.7836 5
      vertex 67.7283 69.4487 5
    endloop
  endfacet
  facet normal -0 0 1
    outer loop
      vertex 51.9961 68.7835 5
      vertex 68.7836 68.0039 5
      vertex 68.0039 68.7836 5
    endloop
  endfacet
  facet normal 0 0 1
    outer loop
      vertex 51.2164 68.0039 5
      vertex 68.7836 68.0039 5
      vertex 51.9961 68.7835 5
    endloop
  endfacet
  facet normal 0 0 1
    outer loop
      vertex 69.4487 7.72835 5
      vertex 68.7836 8.00386 5
      vertex 31.2164 8.00386 5
    endloop
  endfacet
  facet normal 0 0 1
    outer loop
      vertex 31.9961 71.2164 5
      vertex 48.0039 71.2164 5
      vertex 48.7835 71.9961 5
    endloop
  endfacet
  facet normal 0 0 1
    outer loop
      vertex 28.7836 68.0039 5
      vertex 0.190964 20.4993 5
      vertex 29.4487 67.7283 5
    endloop
  endfacet
  facet normal 0 0 1
    outer loop
      vertex 28.0039 68.7836 5
      vertex 0.190964 20.4993 5
      vertex 28.7836 68.0039 5
    endloop
  endfacet
  facet normal 0 0 1
    outer loop
      vertex 27.7283 69.4487 5
      vertex 0.190964 20.4993 5
      vertex 28.0039 68.7836 5
    endloop
  endfacet
  facet normal 0 0 1
    outer loop
      vertex 27.7284 70.5513 5
      vertex 0.190964 20.4993 5
      vertex 27.7283 69.4487 5
    endloop
  endfacet
  facet normal 0 0 1
    outer loop
      vertex 29.2701 98.0533 5
      vertex 0.190964 20.4993 5
      vertex 27.7284 70.5513 5
    endloop
  endfacet
  facet normal 0 0 1
    outer loop
      vertex 29.2701 98.0533 5
      vertex 27.7284 70.5513 5
      vertex 28.0039 71.2164 5
    endloop
  endfacet
  facet normal 0 0 1
    outer loop
      vertex 29.2701 98.0533 5
      vertex 28.7835 71.9961 5
      vertex 29.4487 72.2716 5
    endloop
  endfacet
  facet normal 0 0 1
    outer loop
      vertex 29.2701 98.0533 5
      vertex 28.0039 71.2164 5
      vertex 28.7835 71.9961 5
    endloop
  endfacet
  facet normal 0 -0 1
    outer loop
      vertex 30.5513 72.2716 5
      vertex 47.7283 89.4487 5
      vertex 29.2701 98.0533 5
    endloop
  endfacet
  facet normal 0 0 1
    outer loop
      vertex 48.0039 88.7836 5
      vertex 30.5513 72.2716 5
      vertex 31.2164 71.9961 5
    endloop
  endfacet
  facet normal 0 0 1
    outer loop
      vertex 48.0039 88.7836 5
      vertex 47.7283 89.4487 5
      vertex 30.5513 72.2716 5
    endloop
  endfacet
  facet normal -0 0 1
    outer loop
      vertex 31.9961 71.2164 5
      vertex 32.2716 70.5513 5
      vertex 48.0039 71.2164 5
    endloop
  endfacet
  facet normal 0 0 1
    outer loop
      vertex 32.2716 70.5513 5
      vertex 47.7284 70.5513 5
      vertex 48.0039 71.2164 5
    endloop
  endfacet
  facet normal 0 0 1
    outer loop
      vertex 32.2716 69.4487 5
      vertex 47.7283 69.4487 5
      vertex 32.2716 70.5513 5
    endloop
  endfacet
  facet normal 0 0 1
    outer loop
      vertex 48.0039 68.7836 5
      vertex 47.7283 69.4487 5
      vertex 32.2716 69.4487 5
    endloop
  endfacet
  facet normal 0 0 1
    outer loop
      vertex 48.7836 68.0039 5
      vertex 48.0039 68.7836 5
      vertex 31.9961 68.7835 5
    endloop
  endfacet
  facet normal 0 0 1
    outer loop
      vertex 48.7836 68.0039 5
      vertex 31.9961 68.7835 5
      vertex 31.2164 68.0039 5
    endloop
  endfacet
  facet normal 0 0 1
    outer loop
      vertex 70.5513 7.72836 5
      vertex 69.4487 7.72835 5
      vertex 97 0 5
    endloop
  endfacet
  facet normal 0 0 1
    outer loop
      vertex 88.7836 8.00386 5
      vertex 71.9961 8.78354 5
      vertex 71.2164 8.00386 5
    endloop
  endfacet
  facet normal 0 0 1
    outer loop
      vertex 72.2716 9.44868 5
      vertex 71.9961 8.78354 5
      vertex 88.0039 8.78355 5
    endloop
  endfacet
  facet normal -0 0 1
    outer loop
      vertex 92.2716 10.5513 5
      vertex 100 3 5
      vertex 100 19.446 5
    endloop
  endfacet
  facet normal 0 0 1
    outer loop
      vertex 87.7284 10.5513 5
      vertex 72.2716 10.5513 5
      vertex 87.7283 9.4487 5
    endloop
  endfacet
  facet normal 0 -0 1
    outer loop
      vertex 71.2164 11.9961 5
      vertex 88.7835 11.9961 5
      vertex 70.5513 12.2716 5
    endloop
  endfacet
  facet normal 0 0 1
    outer loop
      vertex 68.7835 11.9961 5
      vertex 49.4487 67.7283 5
      vertex 31.2164 11.9961 5
    endloop
  endfacet
  facet normal 0 0 1
    outer loop
      vertex 50.5513 67.7284 5
      vertex 68.7835 11.9961 5
      vertex 69.4487 12.2716 5
    endloop
  endfacet
  facet normal -0 0 1
    outer loop
      vertex 49.4487 67.7283 5
      vertex 68.7835 11.9961 5
      vertex 50.5513 67.7284 5
    endloop
  endfacet
  facet normal 0 -0 1
    outer loop
      vertex 90.5513 12.2716 5
      vertex 99.809 20.4993 5
      vertex 89.4487 12.2716 5
    endloop
  endfacet
  facet normal 0 0 1
    outer loop
      vertex 100 19.446 5
      vertex 99.809 20.4993 5
      vertex 90.5513 12.2716 5
    endloop
  endfacet
  facet normal 0 0 1
    outer loop
      vertex 100 19.446 5
      vertex 90.5513 12.2716 5
      vertex 91.2164 11.9961 5
    endloop
  endfacet
  facet normal 0 0 1
    outer loop
      vertex 100 19.446 5
      vertex 91.9961 11.2164 5
      vertex 92.2716 10.5513 5
    endloop
  endfacet
  facet normal 0 0 1
    outer loop
      vertex 100 19.446 5
      vertex 91.2164 11.9961 5
      vertex 91.9961 11.2164 5
    endloop
  endfacet
  facet normal -0 0 1
    outer loop
      vertex 92.2716 9.44868 5
      vertex 100 3 5
      vertex 92.2716 10.5513 5
    endloop
  endfacet
  facet normal 0 0 1
    outer loop
      vertex 91.9961 8.78354 5
      vertex 97 0 5
      vertex 100 3 5
    endloop
  endfacet
  facet normal -0 0 1
    outer loop
      vertex 91.2164 8.00386 5
      vertex 97 0 5
      vertex 91.9961 8.78354 5
    endloop
  endfacet
  facet normal -0 0 1
    outer loop
      vertex 90.5513 7.72836 5
      vertex 97 0 5
      vertex 91.2164 8.00386 5
    endloop
  endfacet
  facet normal -0 0 1
    outer loop
      vertex 89.4487 7.72835 5
      vertex 97 0 5
      vertex 90.5513 7.72836 5
    endloop
  endfacet
  facet normal 0 -0 1
    outer loop
      vertex 71.9961 11.2164 5
      vertex 88.7835 11.9961 5
      vertex 71.2164 11.9961 5
    endloop
  endfacet
  facet normal 0 0 1
    outer loop
      vertex 3 0 5
      vertex 97 0 5
      vertex 69.4487 7.72835 5
    endloop
  endfacet
  facet normal 0 0 1
    outer loop
      vertex 68.0039 8.78355 5
      vertex 32.2716 9.44868 5
      vertex 31.9961 8.78354 5
    endloop
  endfacet
  facet normal 0 0 1
    outer loop
      vertex 31.9961 11.2164 5
      vertex 68.0039 11.2164 5
      vertex 68.7835 11.9961 5
    endloop
  endfacet
  facet normal 0 -0 1
    outer loop
      vertex 67.7283 9.4487 5
      vertex 67.7284 10.5513 5
      vertex 32.2716 10.5513 5
    endloop
  endfacet
  facet normal 0 0 1
    outer loop
      vertex 30.5513 7.72836 5
      vertex 3 0 5
      vertex 69.4487 7.72835 5
    endloop
  endfacet
  facet normal 0 0 1
    outer loop
      vertex 0.190964 20.4993 5
      vertex 10.5513 12.2716 5
      vertex 29.4487 12.2716 5
    endloop
  endfacet
  facet normal 0 -0 1
    outer loop
      vertex 88.7835 11.9961 5
      vertex 89.4487 12.2716 5
      vertex 70.5513 12.2716 5
    endloop
  endfacet
  facet normal 0 -0 1
    outer loop
      vertex 69.4487 12.2716 5
      vertex 69.4487 67.7283 5
      vertex 50.5513 67.7284 5
    endloop
  endfacet
  facet normal 0 0 1
    outer loop
      vertex 70.5513 67.7284 5
      vertex 69.4487 67.7283 5
      vertex 70.5513 12.2716 5
    endloop
  endfacet
  facet normal 0 0 1
    outer loop
      vertex 70.5513 12.2716 5
      vertex 69.4487 67.7283 5
      vertex 69.4487 12.2716 5
    endloop
  endfacet
  facet normal 0 0 1
    outer loop
      vertex 99.809 20.4993 5
      vertex 70.5513 12.2716 5
      vertex 89.4487 12.2716 5
    endloop
  endfacet
  facet normal 0 0 1
    outer loop
      vertex 99.809 20.4993 5
      vertex 70.5513 67.7284 5
      vertex 70.5513 12.2716 5
    endloop
  endfacet
  facet normal 0 -0 1
    outer loop
      vertex 72.2716 10.5513 5
      vertex 88.0039 11.2164 5
      vertex 71.9961 11.2164 5
    endloop
  endfacet
  facet normal 0 -0 1
    outer loop
      vertex 87.7284 10.5513 5
      vertex 88.0039 11.2164 5
      vertex 72.2716 10.5513 5
    endloop
  endfacet
  facet normal 0 0 1
    outer loop
      vertex 87.7283 9.4487 5
      vertex 72.2716 10.5513 5
      vertex 72.2716 9.44868 5
    endloop
  endfacet
  facet normal 0 0 1
    outer loop
      vertex 87.7283 9.4487 5
      vertex 72.2716 9.44868 5
      vertex 88.0039 8.78355 5
    endloop
  endfacet
  facet normal 0 0 1
    outer loop
      vertex 88.0039 8.78355 5
      vertex 71.9961 8.78354 5
      vertex 88.7836 8.00386 5
    endloop
  endfacet
  facet normal 0 0 1
    outer loop
      vertex 88.7836 8.00386 5
      vertex 71.2164 8.00386 5
      vertex 97 0 5
    endloop
  endfacet
  facet normal 0 0 1
    outer loop
      vertex 71.2164 8.00386 5
      vertex 70.5513 7.72836 5
      vertex 97 0 5
    endloop
  endfacet
  facet normal 0 -0 1
    outer loop
      vertex 31.9961 11.2164 5
      vertex 68.7835 11.9961 5
      vertex 31.2164 11.9961 5
    endloop
  endfacet
  facet normal 0 0 1
    outer loop
      vertex 11.9961 8.78354 5
      vertex 28.0039 8.78355 5
      vertex 12.2716 9.44868 5
    endloop
  endfacet
  facet normal -0 0 1
    outer loop
      vertex 12.2716 10.5513 5
      vertex 27.7283 9.4487 5
      vertex 27.7284 10.5513 5
    endloop
  endfacet
  facet normal 0 0 1
    outer loop
      vertex 28.7835 11.9961 5
      vertex 11.9961 11.2164 5
      vertex 28.0039 11.2164 5
    endloop
  endfacet
  facet normal 0 0 1
    outer loop
      vertex 8.00386 8.78355 5
      vertex 7.72835 9.4487 5
      vertex 0 3 5
    endloop
  endfacet
  facet normal 0 -0 1
    outer loop
      vertex 7.72835 9.4487 5
      vertex 7.72836 10.5513 5
      vertex 0 3 5
    endloop
  endfacet
  facet normal 0 0 1
    outer loop
      vertex 0 3 5
      vertex 7.72836 10.5513 5
      vertex 0 19.446 5
    endloop
  endfacet
  facet normal -0 0 1
    outer loop
      vertex 0.190964 20.4993 5
      vertex 29.4487 12.2716 5
      vertex 29.4487 67.7283 5
    endloop
  endfacet
  facet normal 0 0 1
    outer loop
      vertex 29.4487 12.2716 5
      vertex 30.5513 12.2716 5
      vertex 29.4487 67.7283 5
    endloop
  endfacet
  facet normal 0 -0 1
    outer loop
      vertex 30.5513 12.2716 5
      vertex 30.5513 67.7284 5
      vertex 29.4487 67.7283 5
    endloop
  endfacet
  facet normal 0 0 1
    outer loop
      vertex 49.4487 67.7283 5
      vertex 30.5513 12.2716 5
      vertex 31.2164 11.9961 5
    endloop
  endfacet
  facet normal 0 0 1
    outer loop
      vertex 49.4487 67.7283 5
      vertex 30.5513 67.7284 5
      vertex 30.5513 12.2716 5
    endloop
  endfacet
  facet normal -0 0 1
    outer loop
      vertex 31.9961 11.2164 5
      vertex 32.2716 10.5513 5
      vertex 68.0039 11.2164 5
    endloop
  endfacet
  facet normal 0 0 1
    outer loop
      vertex 32.2716 10.5513 5
      vertex 67.7284 10.5513 5
      vertex 68.0039 11.2164 5
    endloop
  endfacet
  facet normal 0 0 1
    outer loop
      vertex 32.2716 9.44868 5
      vertex 67.7283 9.4487 5
      vertex 32.2716 10.5513 5
    endloop
  endfacet
  facet normal 0 0 1
    outer loop
      vertex 68.0039 8.78355 5
      vertex 67.7283 9.4487 5
      vertex 32.2716 9.44868 5
    endloop
  endfacet
  facet normal 0 0 1
    outer loop
      vertex 68.7836 8.00386 5
      vertex 68.0039 8.78355 5
      vertex 31.9961 8.78354 5
    endloop
  endfacet
  facet normal 0 0 1
    outer loop
      vertex 3 0 5
      vertex 30.5513 7.72836 5
      vertex 29.4487 7.72835 5
    endloop
  endfacet
  facet normal 0 0 1
    outer loop
      vertex 68.7836 8.00386 5
      vertex 31.9961 8.78354 5
      vertex 31.2164 8.00386 5
    endloop
  endfacet
  facet normal 0 0 1
    outer loop
      vertex 31.2164 8.00386 5
      vertex 30.5513 7.72836 5
      vertex 69.4487 7.72835 5
    endloop
  endfacet
  facet normal -0 0 1
    outer loop
      vertex 11.2164 11.9961 5
      vertex 11.9961 11.2164 5
      vertex 28.7835 11.9961 5
    endloop
  endfacet
  facet normal 0 0 1
    outer loop
      vertex 3 0 5
      vertex 8.78355 8.00386 5
      vertex 8.00386 8.78355 5
    endloop
  endfacet
  facet normal 0 0 1
    outer loop
      vertex 28.0039 11.2164 5
      vertex 11.9961 11.2164 5
      vertex 12.2716 10.5513 5
    endloop
  endfacet
  facet normal 0 -0 1
    outer loop
      vertex 3 0 5
      vertex 8.00386 8.78355 5
      vertex 0 3 5
    endloop
  endfacet
  facet normal 0 -0 1
    outer loop
      vertex 11.2164 11.9961 5
      vertex 28.7835 11.9961 5
      vertex 10.5513 12.2716 5
    endloop
  endfacet
  facet normal 0 0 1
    outer loop
      vertex 0 19.446 5
      vertex 7.72836 10.5513 5
      vertex 8.00386 11.2164 5
    endloop
  endfacet
  facet normal 0 0 1
    outer loop
      vertex 0 19.446 5
      vertex 8.00386 11.2164 5
      vertex 8.78354 11.9961 5
    endloop
  endfacet
  facet normal 0 0 1
    outer loop
      vertex 0 19.446 5
      vertex 8.78354 11.9961 5
      vertex 9.44868 12.2716 5
    endloop
  endfacet
  facet normal -0 0 1
    outer loop
      vertex 0 19.446 5
      vertex 9.44868 12.2716 5
      vertex 0.190964 20.4993 5
    endloop
  endfacet
  facet normal 0 -0 1
    outer loop
      vertex 9.44868 12.2716 5
      vertex 10.5513 12.2716 5
      vertex 0.190964 20.4993 5
    endloop
  endfacet
  facet normal 0 0 1
    outer loop
      vertex 28.0039 11.2164 5
      vertex 12.2716 10.5513 5
      vertex 27.7284 10.5513 5
    endloop
  endfacet
  facet normal 0 0 1
    outer loop
      vertex 12.2716 10.5513 5
      vertex 12.2716 9.44868 5
      vertex 27.7283 9.4487 5
    endloop
  endfacet
  facet normal -0 0 1
    outer loop
      vertex 12.2716 9.44868 5
      vertex 28.0039 8.78355 5
      vertex 27.7283 9.4487 5
    endloop
  endfacet
  facet normal -0 0 1
    outer loop
      vertex 11.9961 8.78354 5
      vertex 28.7836 8.00386 5
      vertex 28.0039 8.78355 5
    endloop
  endfacet
  facet normal -0 0 1
    outer loop
      vertex 10.5513 7.72836 5
      vertex 3 0 5
      vertex 11.2164 8.00386 5
    endloop
  endfacet
  facet normal 0 0 1
    outer loop
      vertex 28.7836 8.00386 5
      vertex 11.2164 8.00386 5
      vertex 3 0 5
    endloop
  endfacet
  facet normal 0 0 1
    outer loop
      vertex 28.7836 8.00386 5
      vertex 11.9961 8.78354 5
      vertex 11.2164 8.00386 5
    endloop
  endfacet
  facet normal -0 0 1
    outer loop
      vertex 9.4487 7.72835 5
      vertex 3 0 5
      vertex 10.5513 7.72836 5
    endloop
  endfacet
  facet normal 0.891013 -0.453978 0
    outer loop
      vertex 100 3 0
      vertex 98.7634 0.572952 5
      vertex 98.7634 0.572952 0
    endloop
  endfacet
  facet normal 0.891013 -0.453978 0
    outer loop
      vertex 100 3 0
      vertex 100 3 5
      vertex 98.7634 0.572952 5
    endloop
  endfacet
  facet normal 1 0 0
    outer loop
      vertex 100 19.446 0
      vertex 100 3 5
      vertex 100 3 0
    endloop
  endfacet
  facet normal 1 0 -0
    outer loop
      vertex 100 19.446 0
      vertex 100 19.446 5
      vertex 100 3 5
    endloop
  endfacet
  facet normal 0.983954 0.178425 0
    outer loop
      vertex 99.809 20.4993 0
      vertex 100 19.446 5
      vertex 100 19.446 0
    endloop
  endfacet
  facet normal 0.983954 0.178425 -0
    outer loop
      vertex 99.809 20.4993 0
      vertex 99.809 20.4993 5
      vertex 100 19.446 5
    endloop
  endfacet
  facet normal 0.936344 0.351085 0
    outer loop
      vertex 70.7299 98.0533 0
      vertex 99.809 20.4993 5
      vertex 99.809 20.4993 0
    endloop
  endfacet
  facet normal 0.936344 0.351085 -0
    outer loop
      vertex 70.7299 98.0533 0
      vertex 70.7299 98.0533 5
      vertex 99.809 20.4993 5
    endloop
  endfacet
  facet normal 0.78203 0.62324 0
    outer loop
      vertex 69.5744 99.5032 0
      vertex 70.7299 98.0533 5
      vertex 70.7299 98.0533 0
    endloop
  endfacet
  facet normal 0.78203 0.62324 -0
    outer loop
      vertex 69.5744 99.5032 0
      vertex 69.5744 99.5032 5
      vertex 70.7299 98.0533 5
    endloop
  endfacet
  facet normal 0.287746 0.957707 0
    outer loop
      vertex 67.9209 100 0
      vertex 69.5744 99.5032 5
      vertex 69.5744 99.5032 0
    endloop
  endfacet
  facet normal 0.287746 0.957707 -0
    outer loop
      vertex 67.9209 100 0
      vertex 67.9209 100 5
      vertex 69.5744 99.5032 5
    endloop
  endfacet
  facet normal 0 1 0
    outer loop
      vertex 32.0791 100 0
      vertex 67.9209 100 5
      vertex 67.9209 100 0
    endloop
  endfacet
  facet normal 0 1 0
    outer loop
      vertex 32.0791 100 0
      vertex 32.0791 100 5
      vertex 67.9209 100 5
    endloop
  endfacet
  facet normal -0.309051 0.951046 0
    outer loop
      vertex 30.3158 99.427 0
      vertex 32.0791 100 5
      vertex 32.0791 100 0
    endloop
  endfacet
  facet normal -0.309051 0.951046 0
    outer loop
      vertex 30.3158 99.427 0
      vertex 30.3158 99.427 5
      vertex 32.0791 100 5
    endloop
  endfacet
  facet normal -0.795691 0.605703 0
    outer loop
      vertex 29.2701 98.0533 0
      vertex 30.3158 99.427 5
      vertex 30.3158 99.427 0
    endloop
  endfacet
  facet normal -0.795691 0.605703 0
    outer loop
      vertex 29.2701 98.0533 0
      vertex 29.2701 98.0533 5
      vertex 30.3158 99.427 5
    endloop
  endfacet
  facet normal -0.936344 0.351085 0
    outer loop
      vertex 0.190964 20.4993 0
      vertex 29.2701 98.0533 5
      vertex 29.2701 98.0533 0
    endloop
  endfacet
  facet normal -0.936344 0.351085 0
    outer loop
      vertex 0.190964 20.4993 0
      vertex 0.190964 20.4993 5
      vertex 29.2701 98.0533 5
    endloop
  endfacet
  facet normal -0.983959 0.178393 0
    outer loop
      vertex 0 19.446 0
      vertex 0.190964 20.4993 5
      vertex 0.190964 20.4993 0
    endloop
  endfacet
  facet normal -0.983959 0.178393 0
    outer loop
      vertex 0 19.446 0
      vertex 0 19.446 5
      vertex 0.190964 20.4993 5
    endloop
  endfacet
  facet normal -1 0 0
    outer loop
      vertex 0 3 0
      vertex 0 19.446 5
      vertex 0 19.446 0
    endloop
  endfacet
  facet normal -1 0 0
    outer loop
      vertex 0 3 0
      vertex 0 3 5
      vertex 0 19.446 5
    endloop
  endfacet
  facet normal -0.951056 -0.309019 0
    outer loop
      vertex 0.572952 1.23665 0
      vertex 0 3 5
      vertex 0 3 0
    endloop
  endfacet
  facet normal -0.951056 -0.309019 0
    outer loop
      vertex 0.572952 1.23665 0
      vertex 0.572952 1.23665 5
      vertex 0 3 5
    endloop
  endfacet
  facet normal -0.453993 -0.891005 0
    outer loop
      vertex 3 0 0
      vertex 0.572952 1.23665 5
      vertex 0.572952 1.23665 0
    endloop
  endfacet
  facet normal -0.453993 -0.891005 0
    outer loop
      vertex 3 0 0
      vertex 3 0 5
      vertex 0.572952 1.23665 5
    endloop
  endfacet
  facet normal 0 -1 0
    outer loop
      vertex 97 0 0
      vertex 3 0 5
      vertex 3 0 0
    endloop
  endfacet
  facet normal 0 -1 0
    outer loop
      vertex 97 0 0
      vertex 97 0 5
      vertex 3 0 5
    endloop
  endfacet
  facet normal 0.309011 -0.951058 0
    outer loop
      vertex 98.7634 0.572952 0
      vertex 97 0 5
      vertex 97 0 0
    endloop
  endfacet
  facet normal 0.309011 -0.951058 0
    outer loop
      vertex 98.7634 0.572952 0
      vertex 98.7634 0.572952 5
      vertex 97 0 5
    endloop
  endfacet
  facet normal 0.707107 0.707107 -0
    outer loop
      vertex 48.0039 88.7836 0
      vertex 48.0039 88.7836 5
      vertex 48.7836 88.0039 0
    endloop
  endfacet
  facet normal 0.707107 0.707107 0
    outer loop
      vertex 48.7836 88.0039 5
      vertex 48.7836 88.0039 0
      vertex 48.0039 88.7836 5
    endloop
  endfacet
  facet normal 0.923827 0.38281 -0
    outer loop
      vertex 47.7283 89.4487 0
      vertex 47.7283 89.4487 5
      vertex 48.0039 88.7836 0
    endloop
  endfacet
  facet normal 0.923827 0.38281 0
    outer loop
      vertex 48.0039 88.7836 5
      vertex 48.0039 88.7836 0
      vertex 47.7283 89.4487 5
    endloop
  endfacet
  facet normal 1 -9.06947e-05 0
    outer loop
      vertex 47.7284 90.5513 0
      vertex 47.7284 90.5513 5
      vertex 47.7283 89.4487 0
    endloop
  endfacet
  facet normal 1 -9.06947e-05 0
    outer loop
      vertex 47.7283 89.4487 5
      vertex 47.7283 89.4487 0
      vertex 47.7284 90.5513 5
    endloop
  endfacet
  facet normal 0.923876 -0.382691 0
    outer loop
      vertex 48.0039 91.2164 0
      vertex 48.0039 91.2164 5
      vertex 47.7284 90.5513 0
    endloop
  endfacet
  facet normal 0.923876 -0.382691 0
    outer loop
      vertex 47.7284 90.5513 5
      vertex 47.7284 90.5513 0
      vertex 48.0039 91.2164 5
    endloop
  endfacet
  facet normal 0.707152 -0.707061 0
    outer loop
      vertex 48.7835 91.9961 0
      vertex 48.7835 91.9961 5
      vertex 48.0039 91.2164 0
    endloop
  endfacet
  facet normal 0.707152 -0.707061 0
    outer loop
      vertex 48.0039 91.2164 5
      vertex 48.0039 91.2164 0
      vertex 48.7835 91.9961 5
    endloop
  endfacet
  facet normal 0.382642 -0.923897 0
    outer loop
      vertex 49.4487 92.2716 0
      vertex 49.4487 92.2716 5
      vertex 48.7835 91.9961 0
    endloop
  endfacet
  facet normal 0.382642 -0.923897 0
    outer loop
      vertex 48.7835 91.9961 5
      vertex 48.7835 91.9961 0
      vertex 49.4487 92.2716 5
    endloop
  endfacet
  facet normal 0 -1 0
    outer loop
      vertex 50.5513 92.2716 0
      vertex 50.5513 92.2716 5
      vertex 49.4487 92.2716 0
    endloop
  endfacet
  facet normal 0 -1 0
    outer loop
      vertex 49.4487 92.2716 5
      vertex 49.4487 92.2716 0
      vertex 50.5513 92.2716 5
    endloop
  endfacet
  facet normal -0.382691 -0.923876 0
    outer loop
      vertex 51.2164 91.9961 0
      vertex 51.2164 91.9961 5
      vertex 50.5513 92.2716 0
    endloop
  endfacet
  facet normal -0.382691 -0.923876 -0
    outer loop
      vertex 50.5513 92.2716 5
      vertex 50.5513 92.2716 0
      vertex 51.2164 91.9961 5
    endloop
  endfacet
  facet normal -0.707107 -0.707107 0
    outer loop
      vertex 51.9961 91.2164 0
      vertex 51.9961 91.2164 5
      vertex 51.2164 91.9961 0
    endloop
  endfacet
  facet normal -0.707107 -0.707107 -0
    outer loop
      vertex 51.2164 91.9961 5
      vertex 51.2164 91.9961 0
      vertex 51.9961 91.2164 5
    endloop
  endfacet
  facet normal -0.923876 -0.382691 0
    outer loop
      vertex 52.2716 90.5513 0
      vertex 52.2716 90.5513 5
      vertex 51.9961 91.2164 0
    endloop
  endfacet
  facet normal -0.923876 -0.382691 -0
    outer loop
      vertex 51.9961 91.2164 5
      vertex 51.9961 91.2164 0
      vertex 52.2716 90.5513 5
    endloop
  endfacet
  facet normal -1 0 0
    outer loop
      vertex 52.2716 89.4487 0
      vertex 52.2716 89.4487 5
      vertex 52.2716 90.5513 0
    endloop
  endfacet
  facet normal -1 -0 -0
    outer loop
      vertex 52.2716 90.5513 5
      vertex 52.2716 90.5513 0
      vertex 52.2716 89.4487 5
    endloop
  endfacet
  facet normal -0.923897 0.382642 0
    outer loop
      vertex 51.9961 88.7835 0
      vertex 51.9961 88.7835 5
      vertex 52.2716 89.4487 0
    endloop
  endfacet
  facet normal -0.923897 0.382642 0
    outer loop
      vertex 52.2716 89.4487 5
      vertex 52.2716 89.4487 0
      vertex 51.9961 88.7835 5
    endloop
  endfacet
  facet normal -0.707061 0.707152 0
    outer loop
      vertex 51.2164 88.0039 0
      vertex 51.2164 88.0039 5
      vertex 51.9961 88.7835 0
    endloop
  endfacet
  facet normal -0.707061 0.707152 0
    outer loop
      vertex 51.9961 88.7835 5
      vertex 51.9961 88.7835 0
      vertex 51.2164 88.0039 5
    endloop
  endfacet
  facet normal -0.382691 0.923876 0
    outer loop
      vertex 50.5513 87.7284 0
      vertex 50.5513 87.7284 5
      vertex 51.2164 88.0039 0
    endloop
  endfacet
  facet normal -0.382691 0.923876 0
    outer loop
      vertex 51.2164 88.0039 5
      vertex 51.2164 88.0039 0
      vertex 50.5513 87.7284 5
    endloop
  endfacet
  facet normal -9.06947e-05 1 0
    outer loop
      vertex 49.4487 87.7283 0
      vertex 49.4487 87.7283 5
      vertex 50.5513 87.7284 0
    endloop
  endfacet
  facet normal -9.06947e-05 1 0
    outer loop
      vertex 50.5513 87.7284 5
      vertex 50.5513 87.7284 0
      vertex 49.4487 87.7283 5
    endloop
  endfacet
  facet normal 0.38281 0.923827 -0
    outer loop
      vertex 48.7836 88.0039 0
      vertex 48.7836 88.0039 5
      vertex 49.4487 87.7283 0
    endloop
  endfacet
  facet normal 0.38281 0.923827 0
    outer loop
      vertex 49.4487 87.7283 5
      vertex 49.4487 87.7283 0
      vertex 48.7836 88.0039 5
    endloop
  endfacet
  facet normal 0.707107 0.707107 -0
    outer loop
      vertex 68.0039 68.7836 0
      vertex 68.0039 68.7836 5
      vertex 68.7836 68.0039 0
    endloop
  endfacet
  facet normal 0.707107 0.707107 0
    outer loop
      vertex 68.7836 68.0039 5
      vertex 68.7836 68.0039 0
      vertex 68.0039 68.7836 5
    endloop
  endfacet
  facet normal 0.923827 0.38281 -0
    outer loop
      vertex 67.7283 69.4487 0
      vertex 67.7283 69.4487 5
      vertex 68.0039 68.7836 0
    endloop
  endfacet
  facet normal 0.923827 0.38281 0
    outer loop
      vertex 68.0039 68.7836 5
      vertex 68.0039 68.7836 0
      vertex 67.7283 69.4487 5
    endloop
  endfacet
  facet normal 1 -9.06947e-05 0
    outer loop
      vertex 67.7284 70.5513 0
      vertex 67.7284 70.5513 5
      vertex 67.7283 69.4487 0
    endloop
  endfacet
  facet normal 1 -9.06947e-05 0
    outer loop
      vertex 67.7283 69.4487 5
      vertex 67.7283 69.4487 0
      vertex 67.7284 70.5513 5
    endloop
  endfacet
  facet normal 0.923876 -0.382691 0
    outer loop
      vertex 68.0039 71.2164 0
      vertex 68.0039 71.2164 5
      vertex 67.7284 70.5513 0
    endloop
  endfacet
  facet normal 0.923876 -0.382691 0
    outer loop
      vertex 67.7284 70.5513 5
      vertex 67.7284 70.5513 0
      vertex 68.0039 71.2164 5
    endloop
  endfacet
  facet normal 0.707152 -0.707061 0
    outer loop
      vertex 68.7835 71.9961 0
      vertex 68.7835 71.9961 5
      vertex 68.0039 71.2164 0
    endloop
  endfacet
  facet normal 0.707152 -0.707061 0
    outer loop
      vertex 68.0039 71.2164 5
      vertex 68.0039 71.2164 0
      vertex 68.7835 71.9961 5
    endloop
  endfacet
  facet normal 0.382642 -0.923897 0
    outer loop
      vertex 69.4487 72.2716 0
      vertex 69.4487 72.2716 5
      vertex 68.7835 71.9961 0
    endloop
  endfacet
  facet normal 0.382642 -0.923897 0
    outer loop
      vertex 68.7835 71.9961 5
      vertex 68.7835 71.9961 0
      vertex 69.4487 72.2716 5
    endloop
  endfacet
  facet normal 0 -1 0
    outer loop
      vertex 70.5513 72.2716 0
      vertex 70.5513 72.2716 5
      vertex 69.4487 72.2716 0
    endloop
  endfacet
  facet normal 0 -1 0
    outer loop
      vertex 69.4487 72.2716 5
      vertex 69.4487 72.2716 0
      vertex 70.5513 72.2716 5
    endloop
  endfacet
  facet normal -0.382691 -0.923876 0
    outer loop
      vertex 71.2164 71.9961 0
      vertex 71.2164 71.9961 5
      vertex 70.5513 72.2716 0
    endloop
  endfacet
  facet normal -0.382691 -0.923876 -0
    outer loop
      vertex 70.5513 72.2716 5
      vertex 70.5513 72.2716 0
      vertex 71.2164 71.9961 5
    endloop
  endfacet
  facet normal -0.707107 -0.707107 0
    outer loop
      vertex 71.9961 71.2164 0
      vertex 71.9961 71.2164 5
      vertex 71.2164 71.9961 0
    endloop
  endfacet
  facet normal -0.707107 -0.707107 -0
    outer loop
      vertex 71.2164 71.9961 5
      vertex 71.2164 71.9961 0
      vertex 71.9961 71.2164 5
    endloop
  endfacet
  facet normal -0.923876 -0.382691 0
    outer loop
      vertex 72.2716 70.5513 0
      vertex 72.2716 70.5513 5
      vertex 71.9961 71.2164 0
    endloop
  endfacet
  facet normal -0.923876 -0.382691 -0
    outer loop
      vertex 71.9961 71.2164 5
      vertex 71.9961 71.2164 0
      vertex 72.2716 70.5513 5
    endloop
  endfacet
  facet normal -1 0 0
    outer loop
      vertex 72.2716 69.4487 0
      vertex 72.2716 69.4487 5
      vertex 72.2716 70.5513 0
    endloop
  endfacet
  facet normal -1 -0 -0
    outer loop
      vertex 72.2716 70.5513 5
      vertex 72.2716 70.5513 0
      vertex 72.2716 69.4487 5
    endloop
  endfacet
  facet normal -0.923897 0.382642 0
    outer loop
      vertex 71.9961 68.7835 0
      vertex 71.9961 68.7835 5
      vertex 72.2716 69.4487 0
    endloop
  endfacet
  facet normal -0.923897 0.382642 0
    outer loop
      vertex 72.2716 69.4487 5
      vertex 72.2716 69.4487 0
      vertex 71.9961 68.7835 5
    endloop
  endfacet
  facet normal -0.707061 0.707152 0
    outer loop
      vertex 71.2164 68.0039 0
      vertex 71.2164 68.0039 5
      vertex 71.9961 68.7835 0
    endloop
  endfacet
  facet normal -0.707061 0.707152 0
    outer loop
      vertex 71.9961 68.7835 5
      vertex 71.9961 68.7835 0
      vertex 71.2164 68.0039 5
    endloop
  endfacet
  facet normal -0.382691 0.923876 0
    outer loop
      vertex 70.5513 67.7284 0
      vertex 70.5513 67.7284 5
      vertex 71.2164 68.0039 0
    endloop
  endfacet
  facet normal -0.382691 0.923876 0
    outer loop
      vertex 71.2164 68.0039 5
      vertex 71.2164 68.0039 0
      vertex 70.5513 67.7284 5
    endloop
  endfacet
  facet normal -9.06947e-05 1 0
    outer loop
      vertex 69.4487 67.7283 0
      vertex 69.4487 67.7283 5
      vertex 70.5513 67.7284 0
    endloop
  endfacet
  facet normal -9.06947e-05 1 0
    outer loop
      vertex 70.5513 67.7284 5
      vertex 70.5513 67.7284 0
      vertex 69.4487 67.7283 5
    endloop
  endfacet
  facet normal 0.38281 0.923827 -0
    outer loop
      vertex 68.7836 68.0039 0
      vertex 68.7836 68.0039 5
      vertex 69.4487 67.7283 0
    endloop
  endfacet
  facet normal 0.38281 0.923827 0
    outer loop
      vertex 69.4487 67.7283 5
      vertex 69.4487 67.7283 0
      vertex 68.7836 68.0039 5
    endloop
  endfacet
  facet normal 0.707107 0.707107 -0
    outer loop
      vertex 48.0039 68.7836 0
      vertex 48.0039 68.7836 5
      vertex 48.7836 68.0039 0
    endloop
  endfacet
  facet normal 0.707107 0.707107 0
    outer loop
      vertex 48.7836 68.0039 5
      vertex 48.7836 68.0039 0
      vertex 48.0039 68.7836 5
    endloop
  endfacet
  facet normal 0.923827 0.38281 -0
    outer loop
      vertex 47.7283 69.4487 0
      vertex 47.7283 69.4487 5
      vertex 48.0039 68.7836 0
    endloop
  endfacet
  facet normal 0.923827 0.38281 0
    outer loop
      vertex 48.0039 68.7836 5
      vertex 48.0039 68.7836 0
      vertex 47.7283 69.4487 5
    endloop
  endfacet
  facet normal 1 -9.06947e-05 0
    outer loop
      vertex 47.7284 70.5513 0
      vertex 47.7284 70.5513 5
      vertex 47.7283 69.4487 0
    endloop
  endfacet
  facet normal 1 -9.06947e-05 0
    outer loop
      vertex 47.7283 69.4487 5
      vertex 47.7283 69.4487 0
      vertex 47.7284 70.5513 5
    endloop
  endfacet
  facet normal 0.923876 -0.382691 0
    outer loop
      vertex 48.0039 71.2164 0
      vertex 48.0039 71.2164 5
      vertex 47.7284 70.5513 0
    endloop
  endfacet
  facet normal 0.923876 -0.382691 0
    outer loop
      vertex 47.7284 70.5513 5
      vertex 47.7284 70.5513 0
      vertex 48.0039 71.2164 5
    endloop
  endfacet
  facet normal 0.707152 -0.707061 0
    outer loop
      vertex 48.7835 71.9961 0
      vertex 48.7835 71.9961 5
      vertex 48.0039 71.2164 0
    endloop
  endfacet
  facet normal 0.707152 -0.707061 0
    outer loop
      vertex 48.0039 71.2164 5
      vertex 48.0039 71.2164 0
      vertex 48.7835 71.9961 5
    endloop
  endfacet
  facet normal 0.382642 -0.923897 0
    outer loop
      vertex 49.4487 72.2716 0
      vertex 49.4487 72.2716 5
      vertex 48.7835 71.9961 0
    endloop
  endfacet
  facet normal 0.382642 -0.923897 0
    outer loop
      vertex 48.7835 71.9961 5
      vertex 48.7835 71.9961 0
      vertex 49.4487 72.2716 5
    endloop
  endfacet
  facet normal 0 -1 0
    outer loop
      vertex 50.5513 72.2716 0
      vertex 50.5513 72.2716 5
      vertex 49.4487 72.2716 0
    endloop
  endfacet
  facet normal 0 -1 0
    outer loop
      vertex 49.4487 72.2716 5
      vertex 49.4487 72.2716 0
      vertex 50.5513 72.2716 5
    endloop
  endfacet
  facet normal -0.382691 -0.923876 0
    outer loop
      vertex 51.2164 71.9961 0
      vertex 51.2164 71.9961 5
      vertex 50.5513 72.2716 0
    endloop
  endfacet
  facet normal -0.382691 -0.923876 -0
    outer loop
      vertex 50.5513 72.2716 5
      vertex 50.5513 72.2716 0
      vertex 51.2164 71.9961 5
    endloop
  endfacet
  facet normal -0.707107 -0.707107 0
    outer loop
      vertex 51.9961 71.2164 0
      vertex 51.9961 71.2164 5
      vertex 51.2164 71.9961 0
    endloop
  endfacet
  facet normal -0.707107 -0.707107 -0
    outer loop
      vertex 51.2164 71.9961 5
      vertex 51.2164 71.9961 0
      vertex 51.9961 71.2164 5
    endloop
  endfacet
  facet normal -0.923876 -0.382691 0
    outer loop
      vertex 52.2716 70.5513 0
      vertex 52.2716 70.5513 5
      vertex 51.9961 71.2164 0
    endloop
  endfacet
  facet normal -0.923876 -0.382691 -0
    outer loop
      vertex 51.9961 71.2164 5
      vertex 51.9961 71.2164 0
      vertex 52.2716 70.5513 5
    endloop
  endfacet
  facet normal -1 0 0
    outer loop
      vertex 52.2716 69.4487 0
      vertex 52.2716 69.4487 5
      vertex 52.2716 70.5513 0
    endloop
  endfacet
  facet normal -1 -0 -0
    outer loop
      vertex 52.2716 70.5513 5
      vertex 52.2716 70.5513 0
      vertex 52.2716 69.4487 5
    endloop
  endfacet
  facet normal -0.923897 0.382642 0
    outer loop
      vertex 51.9961 68.7835 0
      vertex 51.9961 68.7835 5
      vertex 52.2716 69.4487 0
    endloop
  endfacet
  facet normal -0.923897 0.382642 0
    outer loop
      vertex 52.2716 69.4487 5
      vertex 52.2716 69.4487 0
      vertex 51.9961 68.7835 5
    endloop
  endfacet
  facet normal -0.707061 0.707152 0
    outer loop
      vertex 51.2164 68.0039 0
      vertex 51.2164 68.0039 5
      vertex 51.9961 68.7835 0
    endloop
  endfacet
  facet normal -0.707061 0.707152 0
    outer loop
      vertex 51.9961 68.7835 5
      vertex 51.9961 68.7835 0
      vertex 51.2164 68.0039 5
    endloop
  endfacet
  facet normal -0.382691 0.923876 0
    outer loop
      vertex 50.5513 67.7284 0
      vertex 50.5513 67.7284 5
      vertex 51.2164 68.0039 0
    endloop
  endfacet
  facet normal -0.382691 0.923876 0
    outer loop
      vertex 51.2164 68.0039 5
      vertex 51.2164 68.0039 0
      vertex 50.5513 67.7284 5
    endloop
  endfacet
  facet normal -9.06947e-05 1 0
    outer loop
      vertex 49.4487 67.7283 0
      vertex 49.4487 67.7283 5
      vertex 50.5513 67.7284 0
    endloop
  endfacet
  facet normal -9.06947e-05 1 0
    outer loop
      vertex 50.5513 67.7284 5
      vertex 50.5513 67.7284 0
      vertex 49.4487 67.7283 5
    endloop
  endfacet
  facet normal 0.38281 0.923827 -0
    outer loop
      vertex 48.7836 68.0039 0
      vertex 48.7836 68.0039 5
      vertex 49.4487 67.7283 0
    endloop
  endfacet
  facet normal 0.38281 0.923827 0
    outer loop
      vertex 49.4487 67.7283 5
      vertex 49.4487 67.7283 0
      vertex 48.7836 68.0039 5
    endloop
  endfacet
  facet normal 0.707107 0.707107 -0
    outer loop
      vertex 28.0039 68.7836 0
      vertex 28.0039 68.7836 5
      vertex 28.7836 68.0039 0
    endloop
  endfacet
  facet normal 0.707107 0.707107 0
    outer loop
      vertex 28.7836 68.0039 5
      vertex 28.7836 68.0039 0
      vertex 28.0039 68.7836 5
    endloop
  endfacet
  facet normal 0.923827 0.38281 -0
    outer loop
      vertex 27.7283 69.4487 0
      vertex 27.7283 69.4487 5
      vertex 28.0039 68.7836 0
    endloop
  endfacet
  facet normal 0.923827 0.38281 0
    outer loop
      vertex 28.0039 68.7836 5
      vertex 28.0039 68.7836 0
      vertex 27.7283 69.4487 5
    endloop
  endfacet
  facet normal 1 -9.06947e-05 0
    outer loop
      vertex 27.7284 70.5513 0
      vertex 27.7284 70.5513 5
      vertex 27.7283 69.4487 0
    endloop
  endfacet
  facet normal 1 -9.06947e-05 0
    outer loop
      vertex 27.7283 69.4487 5
      vertex 27.7283 69.4487 0
      vertex 27.7284 70.5513 5
    endloop
  endfacet
  facet normal 0.923876 -0.382691 0
    outer loop
      vertex 28.0039 71.2164 0
      vertex 28.0039 71.2164 5
      vertex 27.7284 70.5513 0
    endloop
  endfacet
  facet normal 0.923876 -0.382691 0
    outer loop
      vertex 27.7284 70.5513 5
      vertex 27.7284 70.5513 0
      vertex 28.0039 71.2164 5
    endloop
  endfacet
  facet normal 0.707152 -0.707061 0
    outer loop
      vertex 28.7835 71.9961 0
      vertex 28.7835 71.9961 5
      vertex 28.0039 71.2164 0
    endloop
  endfacet
  facet normal 0.707152 -0.707061 0
    outer loop
      vertex 28.0039 71.2164 5
      vertex 28.0039 71.2164 0
      vertex 28.7835 71.9961 5
    endloop
  endfacet
  facet normal 0.382642 -0.923897 0
    outer loop
      vertex 29.4487 72.2716 0
      vertex 29.4487 72.2716 5
      vertex 28.7835 71.9961 0
    endloop
  endfacet
  facet normal 0.382642 -0.923897 0
    outer loop
      vertex 28.7835 71.9961 5
      vertex 28.7835 71.9961 0
      vertex 29.4487 72.2716 5
    endloop
  endfacet
  facet normal 0 -1 0
    outer loop
      vertex 30.5513 72.2716 0
      vertex 30.5513 72.2716 5
      vertex 29.4487 72.2716 0
    endloop
  endfacet
  facet normal 0 -1 0
    outer loop
      vertex 29.4487 72.2716 5
      vertex 29.4487 72.2716 0
      vertex 30.5513 72.2716 5
    endloop
  endfacet
  facet normal -0.382691 -0.923876 0
    outer loop
      vertex 31.2164 71.9961 0
      vertex 31.2164 71.9961 5
      vertex 30.5513 72.2716 0
    endloop
  endfacet
  facet normal -0.382691 -0.923876 -0
    outer loop
      vertex 30.5513 72.2716 5
      vertex 30.5513 72.2716 0
      vertex 31.2164 71.9961 5
    endloop
  endfacet
  facet normal -0.707107 -0.707107 0
    outer loop
      vertex 31.9961 71.2164 0
      vertex 31.9961 71.2164 5
      vertex 31.2164 71.9961 0
    endloop
  endfacet
  facet normal -0.707107 -0.707107 -0
    outer loop
      vertex 31.2164 71.9961 5
      vertex 31.2164 71.9961 0
      vertex 31.9961 71.2164 5
    endloop
  endfacet
  facet normal -0.923876 -0.382691 0
    outer loop
      vertex 32.2716 70.5513 0
      vertex 32.2716 70.5513 5
      vertex 31.9961 71.2164 0
    endloop
  endfacet
  facet normal -0.923876 -0.382691 -0
    outer loop
      vertex 31.9961 71.2164 5
      vertex 31.9961 71.2164 0
      vertex 32.2716 70.5513 5
    endloop
  endfacet
  facet normal -1 0 0
    outer loop
      vertex 32.2716 69.4487 0
      vertex 32.2716 69.4487 5
      vertex 32.2716 70.5513 0
    endloop
  endfacet
  facet normal -1 -0 -0
    outer loop
      vertex 32.2716 70.5513 5
      vertex 32.2716 70.5513 0
      vertex 32.2716 69.4487 5
    endloop
  endfacet
  facet normal -0.923897 0.382642 0
    outer loop
      vertex 31.9961 68.7835 0
      vertex 31.9961 68.7835 5
      vertex 32.2716 69.4487 0
    endloop
  endfacet
  facet normal -0.923897 0.382642 0
    outer loop
      vertex 32.2716 69.4487 5
      vertex 32.2716 69.4487 0
      vertex 31.9961 68.7835 5
    endloop
  endfacet
  facet normal -0.707061 0.707152 0
    outer loop
      vertex 31.2164 68.0039 0
      vertex 31.2164 68.0039 5
      vertex 31.9961 68.7835 0
    endloop
  endfacet
  facet normal -0.707061 0.707152 0
    outer loop
      vertex 31.9961 68.7835 5
      vertex 31.9961 68.7835 0
      vertex 31.2164 68.0039 5
    endloop
  endfacet
  facet normal -0.382691 0.923876 0
    outer loop
      vertex 30.5513 67.7284 0
      vertex 30.5513 67.7284 5
      vertex 31.2164 68.0039 0
    endloop
  endfacet
  facet normal -0.382691 0.923876 0
    outer loop
      vertex 31.2164 68.0039 5
      vertex 31.2164 68.0039 0
      vertex 30.5513 67.7284 5
    endloop
  endfacet
  facet normal -9.06947e-05 1 0
    outer loop
      vertex 29.4487 67.7283 0
      vertex 29.4487 67.7283 5
      vertex 30.5513 67.7284 0
    endloop
  endfacet
  facet normal -9.06947e-05 1 0
    outer loop
      vertex 30.5513 67.7284 5
      vertex 30.5513 67.7284 0
      vertex 29.4487 67.7283 5
    endloop
  endfacet
  facet normal 0.38281 0.923827 -0
    outer loop
      vertex 28.7836 68.0039 0
      vertex 28.7836 68.0039 5
      vertex 29.4487 67.7283 0
    endloop
  endfacet
  facet normal 0.38281 0.923827 0
    outer loop
      vertex 29.4487 67.7283 5
      vertex 29.4487 67.7283 0
      vertex 28.7836 68.0039 5
    endloop
  endfacet
  facet normal 0.707102 0.707111 -0
    outer loop
      vertex 88.0039 8.78355 0
      vertex 88.0039 8.78355 5
      vertex 88.7836 8.00386 0
    endloop
  endfacet
  facet normal 0.707102 0.707111 0
    outer loop
      vertex 88.7836 8.00386 5
      vertex 88.7836 8.00386 0
      vertex 88.0039 8.78355 5
    endloop
  endfacet
  facet normal 0.923837 0.382785 -0
    outer loop
      vertex 87.7283 9.4487 0
      vertex 87.7283 9.4487 5
      vertex 88.0039 8.78355 0
    endloop
  endfacet
  facet normal 0.923837 0.382785 0
    outer loop
      vertex 88.0039 8.78355 5
      vertex 88.0039 8.78355 0
      vertex 87.7283 9.4487 5
    endloop
  endfacet
  facet normal 1 -9.06947e-05 0
    outer loop
      vertex 87.7284 10.5513 0
      vertex 87.7284 10.5513 5
      vertex 87.7283 9.4487 0
    endloop
  endfacet
  facet normal 1 -9.06947e-05 0
    outer loop
      vertex 87.7283 9.4487 5
      vertex 87.7283 9.4487 0
      vertex 87.7284 10.5513 5
    endloop
  endfacet
  facet normal 0.923876 -0.382691 0
    outer loop
      vertex 88.0039 11.2164 0
      vertex 88.0039 11.2164 5
      vertex 87.7284 10.5513 0
    endloop
  endfacet
  facet normal 0.923876 -0.382691 0
    outer loop
      vertex 87.7284 10.5513 5
      vertex 87.7284 10.5513 0
      vertex 88.0039 11.2164 5
    endloop
  endfacet
  facet normal 0.707152 -0.707061 0
    outer loop
      vertex 88.7835 11.9961 0
      vertex 88.7835 11.9961 5
      vertex 88.0039 11.2164 0
    endloop
  endfacet
  facet normal 0.707152 -0.707061 0
    outer loop
      vertex 88.0039 11.2164 5
      vertex 88.0039 11.2164 0
      vertex 88.7835 11.9961 5
    endloop
  endfacet
  facet normal 0.382642 -0.923897 0
    outer loop
      vertex 89.4487 12.2716 0
      vertex 89.4487 12.2716 5
      vertex 88.7835 11.9961 0
    endloop
  endfacet
  facet normal 0.382642 -0.923897 0
    outer loop
      vertex 88.7835 11.9961 5
      vertex 88.7835 11.9961 0
      vertex 89.4487 12.2716 5
    endloop
  endfacet
  facet normal 0 -1 0
    outer loop
      vertex 90.5513 12.2716 0
      vertex 90.5513 12.2716 5
      vertex 89.4487 12.2716 0
    endloop
  endfacet
  facet normal 0 -1 0
    outer loop
      vertex 89.4487 12.2716 5
      vertex 89.4487 12.2716 0
      vertex 90.5513 12.2716 5
    endloop
  endfacet
  facet normal -0.382691 -0.923876 0
    outer loop
      vertex 91.2164 11.9961 0
      vertex 91.2164 11.9961 5
      vertex 90.5513 12.2716 0
    endloop
  endfacet
  facet normal -0.382691 -0.923876 -0
    outer loop
      vertex 90.5513 12.2716 5
      vertex 90.5513 12.2716 0
      vertex 91.2164 11.9961 5
    endloop
  endfacet
  facet normal -0.707107 -0.707107 0
    outer loop
      vertex 91.9961 11.2164 0
      vertex 91.9961 11.2164 5
      vertex 91.2164 11.9961 0
    endloop
  endfacet
  facet normal -0.707107 -0.707107 -0
    outer loop
      vertex 91.2164 11.9961 5
      vertex 91.2164 11.9961 0
      vertex 91.9961 11.2164 5
    endloop
  endfacet
  facet normal -0.923876 -0.382691 0
    outer loop
      vertex 92.2716 10.5513 0
      vertex 92.2716 10.5513 5
      vertex 91.9961 11.2164 0
    endloop
  endfacet
  facet normal -0.923876 -0.382691 -0
    outer loop
      vertex 91.9961 11.2164 5
      vertex 91.9961 11.2164 0
      vertex 92.2716 10.5513 5
    endloop
  endfacet
  facet normal -1 0 0
    outer loop
      vertex 92.2716 9.44868 0
      vertex 92.2716 9.44868 5
      vertex 92.2716 10.5513 0
    endloop
  endfacet
  facet normal -1 -0 -0
    outer loop
      vertex 92.2716 10.5513 5
      vertex 92.2716 10.5513 0
      vertex 92.2716 9.44868 5
    endloop
  endfacet
  facet normal -0.923884 0.382672 0
    outer loop
      vertex 91.9961 8.78354 0
      vertex 91.9961 8.78354 5
      vertex 92.2716 9.44868 0
    endloop
  endfacet
  facet normal -0.923884 0.382672 0
    outer loop
      vertex 92.2716 9.44868 5
      vertex 92.2716 9.44868 0
      vertex 91.9961 8.78354 5
    endloop
  endfacet
  facet normal -0.707098 0.707116 0
    outer loop
      vertex 91.2164 8.00386 0
      vertex 91.2164 8.00386 5
      vertex 91.9961 8.78354 0
    endloop
  endfacet
  facet normal -0.707098 0.707116 0
    outer loop
      vertex 91.9961 8.78354 5
      vertex 91.9961 8.78354 0
      vertex 91.2164 8.00386 5
    endloop
  endfacet
  facet normal -0.382691 0.923876 0
    outer loop
      vertex 90.5513 7.72836 0
      vertex 90.5513 7.72836 5
      vertex 91.2164 8.00386 0
    endloop
  endfacet
  facet normal -0.382691 0.923876 0
    outer loop
      vertex 91.2164 8.00386 5
      vertex 91.2164 8.00386 0
      vertex 90.5513 7.72836 5
    endloop
  endfacet
  facet normal -9.06947e-06 1 0
    outer loop
      vertex 89.4487 7.72835 0
      vertex 89.4487 7.72835 5
      vertex 90.5513 7.72836 0
    endloop
  endfacet
  facet normal -9.06947e-06 1 0
    outer loop
      vertex 90.5513 7.72836 5
      vertex 90.5513 7.72836 0
      vertex 89.4487 7.72835 5
    endloop
  endfacet
  facet normal 0.382703 0.923871 -0
    outer loop
      vertex 88.7836 8.00386 0
      vertex 88.7836 8.00386 5
      vertex 89.4487 7.72835 0
    endloop
  endfacet
  facet normal 0.382703 0.923871 0
    outer loop
      vertex 89.4487 7.72835 5
      vertex 89.4487 7.72835 0
      vertex 88.7836 8.00386 5
    endloop
  endfacet
  facet normal 0.707102 0.707111 -0
    outer loop
      vertex 68.0039 8.78355 0
      vertex 68.0039 8.78355 5
      vertex 68.7836 8.00386 0
    endloop
  endfacet
  facet normal 0.707102 0.707111 0
    outer loop
      vertex 68.7836 8.00386 5
      vertex 68.7836 8.00386 0
      vertex 68.0039 8.78355 5
    endloop
  endfacet
  facet normal 0.923837 0.382785 -0
    outer loop
      vertex 67.7283 9.4487 0
      vertex 67.7283 9.4487 5
      vertex 68.0039 8.78355 0
    endloop
  endfacet
  facet normal 0.923837 0.382785 0
    outer loop
      vertex 68.0039 8.78355 5
      vertex 68.0039 8.78355 0
      vertex 67.7283 9.4487 5
    endloop
  endfacet
  facet normal 1 -9.06947e-05 0
    outer loop
      vertex 67.7284 10.5513 0
      vertex 67.7284 10.5513 5
      vertex 67.7283 9.4487 0
    endloop
  endfacet
  facet normal 1 -9.06947e-05 0
    outer loop
      vertex 67.7283 9.4487 5
      vertex 67.7283 9.4487 0
      vertex 67.7284 10.5513 5
    endloop
  endfacet
  facet normal 0.923876 -0.382691 0
    outer loop
      vertex 68.0039 11.2164 0
      vertex 68.0039 11.2164 5
      vertex 67.7284 10.5513 0
    endloop
  endfacet
  facet normal 0.923876 -0.382691 0
    outer loop
      vertex 67.7284 10.5513 5
      vertex 67.7284 10.5513 0
      vertex 68.0039 11.2164 5
    endloop
  endfacet
  facet normal 0.707152 -0.707061 0
    outer loop
      vertex 68.7835 11.9961 0
      vertex 68.7835 11.9961 5
      vertex 68.0039 11.2164 0
    endloop
  endfacet
  facet normal 0.707152 -0.707061 0
    outer loop
      vertex 68.0039 11.2164 5
      vertex 68.0039 11.2164 0
      vertex 68.7835 11.9961 5
    endloop
  endfacet
  facet normal 0.382642 -0.923897 0
    outer loop
      vertex 69.4487 12.2716 0
      vertex 69.4487 12.2716 5
      vertex 68.7835 11.9961 0
    endloop
  endfacet
  facet normal 0.382642 -0.923897 0
    outer loop
      vertex 68.7835 11.9961 5
      vertex 68.7835 11.9961 0
      vertex 69.4487 12.2716 5
    endloop
  endfacet
  facet normal 0 -1 0
    outer loop
      vertex 70.5513 12.2716 0
      vertex 70.5513 12.2716 5
      vertex 69.4487 12.2716 0
    endloop
  endfacet
  facet normal 0 -1 0
    outer loop
      vertex 69.4487 12.2716 5
      vertex 69.4487 12.2716 0
      vertex 70.5513 12.2716 5
    endloop
  endfacet
  facet normal -0.382691 -0.923876 0
    outer loop
      vertex 71.2164 11.9961 0
      vertex 71.2164 11.9961 5
      vertex 70.5513 12.2716 0
    endloop
  endfacet
  facet normal -0.382691 -0.923876 -0
    outer loop
      vertex 70.5513 12.2716 5
      vertex 70.5513 12.2716 0
      vertex 71.2164 11.9961 5
    endloop
  endfacet
  facet normal -0.707107 -0.707107 0
    outer loop
      vertex 71.9961 11.2164 0
      vertex 71.9961 11.2164 5
      vertex 71.2164 11.9961 0
    endloop
  endfacet
  facet normal -0.707107 -0.707107 -0
    outer loop
      vertex 71.2164 11.9961 5
      vertex 71.2164 11.9961 0
      vertex 71.9961 11.2164 5
    endloop
  endfacet
  facet normal -0.923876 -0.382691 0
    outer loop
      vertex 72.2716 10.5513 0
      vertex 72.2716 10.5513 5
      vertex 71.9961 11.2164 0
    endloop
  endfacet
  facet normal -0.923876 -0.382691 -0
    outer loop
      vertex 71.9961 11.2164 5
      vertex 71.9961 11.2164 0
      vertex 72.2716 10.5513 5
    endloop
  endfacet
  facet normal -1 0 0
    outer loop
      vertex 72.2716 9.44868 0
      vertex 72.2716 9.44868 5
      vertex 72.2716 10.5513 0
    endloop
  endfacet
  facet normal -1 -0 -0
    outer loop
      vertex 72.2716 10.5513 5
      vertex 72.2716 10.5513 0
      vertex 72.2716 9.44868 5
    endloop
  endfacet
  facet normal -0.923884 0.382672 0
    outer loop
      vertex 71.9961 8.78354 0
      vertex 71.9961 8.78354 5
      vertex 72.2716 9.44868 0
    endloop
  endfacet
  facet normal -0.923884 0.382672 0
    outer loop
      vertex 72.2716 9.44868 5
      vertex 72.2716 9.44868 0
      vertex 71.9961 8.78354 5
    endloop
  endfacet
  facet normal -0.707098 0.707116 0
    outer loop
      vertex 71.2164 8.00386 0
      vertex 71.2164 8.00386 5
      vertex 71.9961 8.78354 0
    endloop
  endfacet
  facet normal -0.707098 0.707116 0
    outer loop
      vertex 71.9961 8.78354 5
      vertex 71.9961 8.78354 0
      vertex 71.2164 8.00386 5
    endloop
  endfacet
  facet normal -0.382691 0.923876 0
    outer loop
      vertex 70.5513 7.72836 0
      vertex 70.5513 7.72836 5
      vertex 71.2164 8.00386 0
    endloop
  endfacet
  facet normal -0.382691 0.923876 0
    outer loop
      vertex 71.2164 8.00386 5
      vertex 71.2164 8.00386 0
      vertex 70.5513 7.72836 5
    endloop
  endfacet
  facet normal -9.06947e-06 1 0
    outer loop
      vertex 69.4487 7.72835 0
      vertex 69.4487 7.72835 5
      vertex 70.5513 7.72836 0
    endloop
  endfacet
  facet normal -9.06947e-06 1 0
    outer loop
      vertex 70.5513 7.72836 5
      vertex 70.5513 7.72836 0
      vertex 69.4487 7.72835 5
    endloop
  endfacet
  facet normal 0.382703 0.923871 -0
    outer loop
      vertex 68.7836 8.00386 0
      vertex 68.7836 8.00386 5
      vertex 69.4487 7.72835 0
    endloop
  endfacet
  facet normal 0.382703 0.923871 0
    outer loop
      vertex 69.4487 7.72835 5
      vertex 69.4487 7.72835 0
      vertex 68.7836 8.00386 5
    endloop
  endfacet
  facet normal 0.707102 0.707111 -0
    outer loop
      vertex 28.0039 8.78355 0
      vertex 28.0039 8.78355 5
      vertex 28.7836 8.00386 0
    endloop
  endfacet
  facet normal 0.707102 0.707111 0
    outer loop
      vertex 28.7836 8.00386 5
      vertex 28.7836 8.00386 0
      vertex 28.0039 8.78355 5
    endloop
  endfacet
  facet normal 0.923837 0.382785 -0
    outer loop
      vertex 27.7283 9.4487 0
      vertex 27.7283 9.4487 5
      vertex 28.0039 8.78355 0
    endloop
  endfacet
  facet normal 0.923837 0.382785 0
    outer loop
      vertex 28.0039 8.78355 5
      vertex 28.0039 8.78355 0
      vertex 27.7283 9.4487 5
    endloop
  endfacet
  facet normal 1 -9.06947e-05 0
    outer loop
      vertex 27.7284 10.5513 0
      vertex 27.7284 10.5513 5
      vertex 27.7283 9.4487 0
    endloop
  endfacet
  facet normal 1 -9.06947e-05 0
    outer loop
      vertex 27.7283 9.4487 5
      vertex 27.7283 9.4487 0
      vertex 27.7284 10.5513 5
    endloop
  endfacet
  facet normal 0.923876 -0.382691 0
    outer loop
      vertex 28.0039 11.2164 0
      vertex 28.0039 11.2164 5
      vertex 27.7284 10.5513 0
    endloop
  endfacet
  facet normal 0.923876 -0.382691 0
    outer loop
      vertex 27.7284 10.5513 5
      vertex 27.7284 10.5513 0
      vertex 28.0039 11.2164 5
    endloop
  endfacet
  facet normal 0.707152 -0.707061 0
    outer loop
      vertex 28.7835 11.9961 0
      vertex 28.7835 11.9961 5
      vertex 28.0039 11.2164 0
    endloop
  endfacet
  facet normal 0.707152 -0.707061 0
    outer loop
      vertex 28.0039 11.2164 5
      vertex 28.0039 11.2164 0
      vertex 28.7835 11.9961 5
    endloop
  endfacet
  facet normal 0.382642 -0.923897 0
    outer loop
      vertex 29.4487 12.2716 0
      vertex 29.4487 12.2716 5
      vertex 28.7835 11.9961 0
    endloop
  endfacet
  facet normal 0.382642 -0.923897 0
    outer loop
      vertex 28.7835 11.9961 5
      vertex 28.7835 11.9961 0
      vertex 29.4487 12.2716 5
    endloop
  endfacet
  facet normal 0 -1 0
    outer loop
      vertex 30.5513 12.2716 0
      vertex 30.5513 12.2716 5
      vertex 29.4487 12.2716 0
    endloop
  endfacet
  facet normal 0 -1 0
    outer loop
      vertex 29.4487 12.2716 5
      vertex 29.4487 12.2716 0
      vertex 30.5513 12.2716 5
    endloop
  endfacet
  facet normal -0.382691 -0.923876 0
    outer loop
      vertex 31.2164 11.9961 0
      vertex 31.2164 11.9961 5
      vertex 30.5513 12.2716 0
    endloop
  endfacet
  facet normal -0.382691 -0.923876 -0
    outer loop
      vertex 30.5513 12.2716 5
      vertex 30.5513 12.2716 0
      vertex 31.2164 11.9961 5
    endloop
  endfacet
  facet normal -0.707107 -0.707107 0
    outer loop
      vertex 31.9961 11.2164 0
      vertex 31.9961 11.2164 5
      vertex 31.2164 11.9961 0
    endloop
  endfacet
  facet normal -0.707107 -0.707107 -0
    outer loop
      vertex 31.2164 11.9961 5
      vertex 31.2164 11.9961 0
      vertex 31.9961 11.2164 5
    endloop
  endfacet
  facet normal -0.923876 -0.382691 0
    outer loop
      vertex 32.2716 10.5513 0
      vertex 32.2716 10.5513 5
      vertex 31.9961 11.2164 0
    endloop
  endfacet
  facet normal -0.923876 -0.382691 -0
    outer loop
      vertex 31.9961 11.2164 5
      vertex 31.9961 11.2164 0
      vertex 32.2716 10.5513 5
    endloop
  endfacet
  facet normal -1 0 0
    outer loop
      vertex 32.2716 9.44868 0
      vertex 32.2716 9.44868 5
      vertex 32.2716 10.5513 0
    endloop
  endfacet
  facet normal -1 -0 -0
    outer loop
      vertex 32.2716 10.5513 5
      vertex 32.2716 10.5513 0
      vertex 32.2716 9.44868 5
    endloop
  endfacet
  facet normal -0.923884 0.382672 0
    outer loop
      vertex 31.9961 8.78354 0
      vertex 31.9961 8.78354 5
      vertex 32.2716 9.44868 0
    endloop
  endfacet
  facet normal -0.923884 0.382672 0
    outer loop
      vertex 32.2716 9.44868 5
      vertex 32.2716 9.44868 0
      vertex 31.9961 8.78354 5
    endloop
  endfacet
  facet normal -0.707098 0.707116 0
    outer loop
      vertex 31.2164 8.00386 0
      vertex 31.2164 8.00386 5
      vertex 31.9961 8.78354 0
    endloop
  endfacet
  facet normal -0.707098 0.707116 0
    outer loop
      vertex 31.9961 8.78354 5
      vertex 31.9961 8.78354 0
      vertex 31.2164 8.00386 5
    endloop
  endfacet
  facet normal -0.382691 0.923876 0
    outer loop
      vertex 30.5513 7.72836 0
      vertex 30.5513 7.72836 5
      vertex 31.2164 8.00386 0
    endloop
  endfacet
  facet normal -0.382691 0.923876 0
    outer loop
      vertex 31.2164 8.00386 5
      vertex 31.2164 8.00386 0
      vertex 30.5513 7.72836 5
    endloop
  endfacet
  facet normal -9.06947e-06 1 0
    outer loop
      vertex 29.4487 7.72835 0
      vertex 29.4487 7.72835 5
      vertex 30.5513 7.72836 0
    endloop
  endfacet
  facet normal -9.06947e-06 1 0
    outer loop
      vertex 30.5513 7.72836 5
      vertex 30.5513 7.72836 0
      vertex 29.4487 7.72835 5
    endloop
  endfacet
  facet normal 0.382703 0.923871 -0
    outer loop
      vertex 28.7836 8.00386 0
      vertex 28.7836 8.00386 5
      vertex 29.4487 7.72835 0
    endloop
  endfacet
  facet normal 0.382703 0.923871 0
    outer loop
      vertex 29.4487 7.72835 5
      vertex 29.4487 7.72835 0
      vertex 28.7836 8.00386 5
    endloop
  endfacet
  facet normal 0.707107 0.707107 -0
    outer loop
      vertex 8.00386 8.78355 0
      vertex 8.00386 8.78355 5
      vertex 8.78355 8.00386 0
    endloop
  endfacet
  facet normal 0.707107 0.707107 0
    outer loop
      vertex 8.78355 8.00386 5
      vertex 8.78355 8.00386 0
      vertex 8.00386 8.78355 5
    endloop
  endfacet
  facet normal 0.923882 0.382679 -0
    outer loop
      vertex 7.72835 9.4487 0
      vertex 7.72835 9.4487 5
      vertex 8.00386 8.78355 0
    endloop
  endfacet
  facet normal 0.923882 0.382679 0
    outer loop
      vertex 8.00386 8.78355 5
      vertex 8.00386 8.78355 0
      vertex 7.72835 9.4487 5
    endloop
  endfacet
  facet normal 1 -9.06947e-06 0
    outer loop
      vertex 7.72836 10.5513 0
      vertex 7.72836 10.5513 5
      vertex 7.72835 9.4487 0
    endloop
  endfacet
  facet normal 1 -9.06947e-06 0
    outer loop
      vertex 7.72835 9.4487 5
      vertex 7.72835 9.4487 0
      vertex 7.72836 10.5513 5
    endloop
  endfacet
  facet normal 0.923876 -0.382691 0
    outer loop
      vertex 8.00386 11.2164 0
      vertex 8.00386 11.2164 5
      vertex 7.72836 10.5513 0
    endloop
  endfacet
  facet normal 0.923876 -0.382691 0
    outer loop
      vertex 7.72836 10.5513 5
      vertex 7.72836 10.5513 0
      vertex 8.00386 11.2164 5
    endloop
  endfacet
  facet normal 0.707116 -0.707098 0
    outer loop
      vertex 8.78354 11.9961 0
      vertex 8.78354 11.9961 5
      vertex 8.00386 11.2164 0
    endloop
  endfacet
  facet normal 0.707116 -0.707098 0
    outer loop
      vertex 8.00386 11.2164 5
      vertex 8.00386 11.2164 0
      vertex 8.78354 11.9961 5
    endloop
  endfacet
  facet normal 0.382672 -0.923884 0
    outer loop
      vertex 9.44868 12.2716 0
      vertex 9.44868 12.2716 5
      vertex 8.78354 11.9961 0
    endloop
  endfacet
  facet normal 0.382672 -0.923884 0
    outer loop
      vertex 8.78354 11.9961 5
      vertex 8.78354 11.9961 0
      vertex 9.44868 12.2716 5
    endloop
  endfacet
  facet normal 0 -1 0
    outer loop
      vertex 10.5513 12.2716 0
      vertex 10.5513 12.2716 5
      vertex 9.44868 12.2716 0
    endloop
  endfacet
  facet normal 0 -1 0
    outer loop
      vertex 9.44868 12.2716 5
      vertex 9.44868 12.2716 0
      vertex 10.5513 12.2716 5
    endloop
  endfacet
  facet normal -0.382691 -0.923876 0
    outer loop
      vertex 11.2164 11.9961 0
      vertex 11.2164 11.9961 5
      vertex 10.5513 12.2716 0
    endloop
  endfacet
  facet normal -0.382691 -0.923876 -0
    outer loop
      vertex 10.5513 12.2716 5
      vertex 10.5513 12.2716 0
      vertex 11.2164 11.9961 5
    endloop
  endfacet
  facet normal -0.707107 -0.707107 0
    outer loop
      vertex 11.9961 11.2164 0
      vertex 11.9961 11.2164 5
      vertex 11.2164 11.9961 0
    endloop
  endfacet
  facet normal -0.707107 -0.707107 -0
    outer loop
      vertex 11.2164 11.9961 5
      vertex 11.2164 11.9961 0
      vertex 11.9961 11.2164 5
    endloop
  endfacet
  facet normal -0.923876 -0.382691 0
    outer loop
      vertex 12.2716 10.5513 0
      vertex 12.2716 10.5513 5
      vertex 11.9961 11.2164 0
    endloop
  endfacet
  facet normal -0.923876 -0.382691 -0
    outer loop
      vertex 11.9961 11.2164 5
      vertex 11.9961 11.2164 0
      vertex 12.2716 10.5513 5
    endloop
  endfacet
  facet normal -1 0 0
    outer loop
      vertex 12.2716 9.44868 0
      vertex 12.2716 9.44868 5
      vertex 12.2716 10.5513 0
    endloop
  endfacet
  facet normal -1 -0 -0
    outer loop
      vertex 12.2716 10.5513 5
      vertex 12.2716 10.5513 0
      vertex 12.2716 9.44868 5
    endloop
  endfacet
  facet normal -0.923884 0.382672 0
    outer loop
      vertex 11.9961 8.78354 0
      vertex 11.9961 8.78354 5
      vertex 12.2716 9.44868 0
    endloop
  endfacet
  facet normal -0.923884 0.382672 0
    outer loop
      vertex 12.2716 9.44868 5
      vertex 12.2716 9.44868 0
      vertex 11.9961 8.78354 5
    endloop
  endfacet
  facet normal -0.707098 0.707116 0
    outer loop
      vertex 11.2164 8.00386 0
      vertex 11.2164 8.00386 5
      vertex 11.9961 8.78354 0
    endloop
  endfacet
  facet normal -0.707098 0.707116 0
    outer loop
      vertex 11.9961 8.78354 5
      vertex 11.9961 8.78354 0
      vertex 11.2164 8.00386 5
    endloop
  endfacet
  facet normal -0.382691 0.923876 0
    outer loop
      vertex 10.5513 7.72836 0
      vertex 10.5513 7.72836 5
      vertex 11.2164 8.00386 0
    endloop
  endfacet
  facet normal -0.382691 0.923876 0
    outer loop
      vertex 11.2164 8.00386 5
      vertex 11.2164 8.00386 0
      vertex 10.5513 7.72836 5
    endloop
  endfacet
  facet normal -9.06947e-06 1 0
    outer loop
      vertex 9.4487 7.72835 0
      vertex 9.4487 7.72835 5
      vertex 10.5513 7.72836 0
    endloop
  endfacet
  facet normal -9.06947e-06 1 0
    outer loop
      vertex 10.5513 7.72836 5
      vertex 10.5513 7.72836 0
      vertex 9.4487 7.72835 5
    endloop
  endfacet
  facet normal 0.382679 0.923882 -0
    outer loop
      vertex 8.78355 8.00386 0
      vertex 8.78355 8.00386 5
      vertex 9.4487 7.72835 0
    endloop
  endfacet
  facet normal 0.382679 0.923882 0
    outer loop
      vertex 9.4487 7.72835 5
      vertex 9.4487 7.72835 0
      vertex 8.78355 8.00386 5
    endloop
  endfacet
endsolid OpenSCAD_Model
